<?xml version="1.0" encoding="UTF-8" standalone="no"?>
<!-- Created with Inkscape (http://www.inkscape.org/) -->

<svg
   width="200mm"
   height="180mm"
   viewBox="0 0 200 180"
   version="1.1"
   id="svg1"
   inkscape:version="1.3.2 (091e20e, 2023-11-25, custom)"
   sodipodi:docname="logoVISERE.svg"
   xmlns:inkscape="http://www.inkscape.org/namespaces/inkscape"
   xmlns:sodipodi="http://sodipodi.sourceforge.net/DTD/sodipodi-0.dtd"
   xmlns="http://www.w3.org/2000/svg"
   xmlns:svg="http://www.w3.org/2000/svg">
  <sodipodi:namedview
     id="namedview1"
     pagecolor="#ffffff"
     bordercolor="#000000"
     borderopacity="0.25"
     inkscape:showpageshadow="2"
     inkscape:pageopacity="0.0"
     inkscape:pagecheckerboard="0"
     inkscape:deskcolor="#d1d1d1"
     inkscape:document-units="mm"
     inkscape:zoom="0.70911897"
     inkscape:cx="396.26637"
     inkscape:cy="561.25984"
     inkscape:window-width="1920"
     inkscape:window-height="992"
     inkscape:window-x="-8"
     inkscape:window-y="-8"
     inkscape:window-maximized="1"
     inkscape:current-layer="layer1" />
  <defs
     id="defs1" />
  <g
     inkscape:label="Warstwa 1"
     inkscape:groupmode="layer"
     id="layer1">
    <g
       id="g1004"
       inkscape:export-filename="C:\Users\WielkiB\Desktop\g256.png"
       inkscape:export-xdpi="32.569"
       inkscape:export-ydpi="32.569"
       transform="translate(-2.3472893e-5,0.70343924)">
      <g
         id="g1563"
         transform="matrix(1.346825,0,0,1.346825,-35.443149,-17.571793)"
         inkscape:export-filename="C:\Users\WielkiB\Desktop\logo2k.png"
         inkscape:export-xdpi="260.09567"
         inkscape:export-ydpi="260.09567">
        <path
           style="font-size:50.8px;line-height:1.25;font-family:'a bug\'s life - debugged';-inkscape-font-specification:'a bug\'s life - debugged';text-align:center;letter-spacing:0px;word-spacing:0px;text-anchor:middle;stroke-width:0.264583"
           d="M 42.03813,144.6081 28.172309,105.29267 h 9.57461 l 6.598046,21.97695 q 0.07441,0.29766 0.396875,1.68672 0.124024,0.66973 0.297657,1.5875 0.198437,0.89297 0.421679,2.00918 0.173633,-0.89297 0.347266,-1.68672 0.173633,-0.81855 0.347266,-1.56269 0.322461,-1.61231 0.471289,-2.03399 l 6.573242,-21.97695 h 9.574609 L 48.884223,144.6081 Z m 22.721093,0 v -39.31543 h 9.103321 v 39.31543 z m 15.155665,-12.7 q 2.058789,2.75332 3.96875,4.04316 1.934766,1.33946 3.894336,1.33946 1.810742,0 2.951758,-1.14102 1.16582,-1.11621 1.16582,-2.92695 0,-1.98438 -0.992187,-3.02617 -0.992188,-1.0418 -4.564063,-2.18282 -4.812109,-1.53789 -6.870898,-4.04316 -2.00918,-2.53008 -2.00918,-6.8709 0,-5.60586 3.175,-9.17773 3.199805,-3.57188 8.235156,-3.57188 2.678907,0 5.18418,0.86817 2.480469,0.91777 4.638476,2.6541 l -2.827734,7.71426 q -1.562695,-1.5875 -3.150195,-2.35645 -1.63711,-0.79375 -3.175,-0.79375 -1.5875,0 -2.654102,0.91777 -1.016992,0.94258 -1.016992,2.38125 0,1.51309 0.892969,2.35645 0.892969,0.91777 3.447851,1.71152 l 0.396875,0.12403 q 5.531446,1.78593 7.242969,3.89433 1.16582,1.46348 1.810742,3.47266 0.595311,2.00918 0.595311,4.48965 0,6.27558 -3.44785,10.04589 -3.472656,3.81993 -9.227343,3.81993 -3.423047,0 -6.275586,-1.38907 -2.877344,-1.41386 -5.457031,-4.39043 z m 22.324212,12.7 v -39.31543 h 20.26543 v 8.60723 h -11.48457 v 6.82129 h 10.81485 v 8.43359 h -10.81485 v 6.64766 h 11.48457 v 8.80566 z m 30.7082,-20.73672 h 1.68672 q 2.87735,0 4.2416,-1.16582 1.33946,-1.19062 1.33946,-3.7207 0,-2.95176 -1.26504,-4.19199 -1.24024,-1.26504 -4.19199,-1.26504 h -1.81075 z m -8.45839,20.73672 v -39.31543 h 9.42578 q 5.58105,0 7.71426,0.62012 2.158,0.62011 3.77031,2.00918 1.78594,1.66191 2.72851,4.11758 0.96739,2.50527 0.96739,5.50664 0,4.58886 -1.88516,7.4166 -1.90996,2.87734 -5.50664,3.79511 l 9.0041,15.8502 h -10.16992 l -7.59024,-15.40371 v 15.40371 z m 28.20293,0 v -39.31543 h 20.26543 v 8.60723 H 161.4727 v 6.82129 h 10.81484 v 8.43359 H 161.4727 v 6.64766 h 11.48457 v 8.80566 z"
           id="text1558"
           aria-label="VISERE" />
      </g>
      <g
         id="g1830"
         transform="scale(0.98950512)"
         style="fill:#000000;fill-opacity:1"
         inkscape:export-filename="C:\Users\WielkiB\Desktop\logo2k.png"
         inkscape:export-xdpi="260.09567"
         inkscape:export-ydpi="260.09567">
        <path
           id="path1761"
           style="fill:#000000;fill-opacity:1;stroke-width:0.989526"
           d="M 380.57227,0 C 363.87465,0.00616942 345.39161,0.63827174 334.85156,1.7558594 319.12498,3.4233892 290.30555,8.439454 275.35156,12.111328 214.20785,27.124778 153.69774,58.204245 106.75,98.707031 92.17884,111.27793 7.89328,194.05138 4.9414062,198.68945 c -4.19062603,6.58432 -5.34380644,11.18425 -4.82617182,19.25 0.33703623,5.25167 1.15793312,8.39555 3.14843752,12.05274 1.9507509,3.58421 14.8821161,16.81507 46.9160161,48.00976 47.869472,46.61539 53.109132,51.51706 66.810542,62.48633 23.18004,18.55782 42.92829,31.26899 70.42383,45.32813 48.08343,24.58611 99.07067,39.11794 154.35156,43.99023 16.9977,1.49811 62.49746,1.18525 78.1836,-0.53711 78.83232,-8.65752 148.53131,-35.68297 208.78516,-80.95898 16.1243,-12.11593 28.02876,-22.8031 59.36914,-53.29297 64.3837,-62.6362 63.38341,-61.60195 65.68945,-67.91602 3.80464,-10.41634 2.43768,-21.02464 -3.82617,-29.69726 -3.54749,-4.91224 -84.14769,-83.63549 -98.47461,-96.18164 C 630.09333,82.483843 602.91899,63.625895 577.69336,50.007812 524.38843,21.231334 468.72677,5.1898875 406.59375,0.69726562 399.96559,0.21803479 390.59068,-0.00370128 380.57227,0 Z m -2.6543,28.042969 h 0.0332 c 103.46602,-0.0011 187.34267,83.873821 187.34375,187.339841 0,103.46602 -83.87578,187.3418 -187.3418,187.3418 -103.46602,-10e-6 -187.34179,-83.87578 -187.34179,-187.3418 10e-4,-103.45152 83.85512,-187.320425 187.30664,-187.339841 z m 0.0351,12.154297 c -96.75212,3e-6 -175.185,78.433424 -175.18554,175.185544 -5.4e-4,96.75288 78.43266,175.1875 175.18554,175.1875 96.75289,0 175.18609,-78.43461 175.18555,-175.1875 C 553.13813,118.63069 474.70524,40.197263 377.95312,40.197266 Z M 265.75781,99.779297 h 62.08985 l 42.78515,142.517583 c 0.32125,1.28686 1.17951,4.93432 2.57422,10.93945 0.53556,2.89547 1.18055,6.32715 1.93164,10.29492 0.8585,3.86046 1.77019,8.20175 2.73438,13.02734 0.75098,-3.86048 1.50108,-7.50594 2.25195,-10.9375 0.75069,-3.5388 1.50184,-6.91572 2.25195,-10.13281 1.39428,-6.97034 2.41335,-11.36841 3.05664,-13.1914 l 42.625,-142.517583 h 62.08985 L 400.07031,354.73438 h -44.39453 z"
           transform="scale(0.26738955)"
           sodipodi:nodetypes="sscccsssscscccccccsssscscsssssscccccccccccccc" />
      </g>
    </g>
  </g>
</svg>
