<?xml version="1.0" encoding="UTF-8" standalone="no"?>
<svg
   xmlns:dc="http://purl.org/dc/elements/1.1/"
   xmlns:cc="http://creativecommons.org/ns#"
   xmlns:rdf="http://www.w3.org/1999/02/22-rdf-syntax-ns#"
   xmlns:svg="http://www.w3.org/2000/svg"
   xmlns="http://www.w3.org/2000/svg"
   xmlns:sodipodi="http://sodipodi.sourceforge.net/DTD/sodipodi-0.dtd"
   xmlns:inkscape="http://www.inkscape.org/namespaces/inkscape"
   width="200mm"
   height="200mm"
   viewBox="0 0 200 200"
   version="1.1"
   id="svg2064"
   inkscape:version="1.0.1 (3bc2e813f5, 2020-09-07)"
   sodipodi:docname="icon-support.svg">
  <defs
     id="defs2058" />
  <sodipodi:namedview
     id="base"
     pagecolor="#ffffff"
     bordercolor="#666666"
     borderopacity="1.0"
     inkscape:pageopacity="0.0"
     inkscape:pageshadow="2"
     inkscape:zoom="0.34085227"
     inkscape:cx="1065.0226"
     inkscape:cy="364.30653"
     inkscape:document-units="mm"
     inkscape:current-layer="layer1"
     inkscape:document-rotation="0"
     showgrid="false"
     inkscape:window-width="1920"
     inkscape:window-height="1009"
     inkscape:window-x="-8"
     inkscape:window-y="-8"
     inkscape:window-maximized="1" />
  <metadata
     id="metadata2061">
    <rdf:RDF>
      <cc:Work
         rdf:about="">
        <dc:format>image/svg+xml</dc:format>
        <dc:type
           rdf:resource="http://purl.org/dc/dcmitype/StillImage" />
        <dc:title></dc:title>
      </cc:Work>
    </rdf:RDF>
  </metadata>
  <g
     inkscape:label="Warstwa 1"
     inkscape:groupmode="layer"
     id="layer1">
    <path
       style="fill:#ff0000;stroke-width:0.23691"
       d="m 91.185812,199.94992 c -13.90952,-1.26817 -26.686415,-6.18597 -37.787109,-14.54416 -16.0046,-12.05051 -26.07683,-29.46933 -28.695334,-49.62544 -0.54908,-4.22652 -0.548972,-13.30625 1.93e-4,-17.53133 1.162594,-8.94439 3.604585,-16.92193 7.469528,-24.401703 11.60142,-22.45199 33.12926,-37.16942 58.030962,-39.67267 3.14194,-0.31586 11.109488,-0.31792 14.282828,-0.004 22.00317,2.17863 41.67625,14.08288 54.01978,32.68754 2.30831,3.47921 6.08915,10.86692 7.39586,14.451493 2.02453,5.55369 3.26115,10.56327 4.09372,16.5837 0.57231,4.13833 0.57241,14.10226 2.1e-4,18.24203 -1.17949,8.53347 -3.16793,15.17898 -6.76974,22.62491 -3.74685,7.74581 -8.21546,14.01663 -14.34991,20.13731 -9.61909,9.59752 -22.13067,16.52044 -35.12331,19.43445 -5.64068,1.2651 -8.49938,1.57437 -15.223478,1.64698 -3.45296,0.0371 -6.75785,0.0241 -7.3442,-0.0294 z m 13.614008,-7.31485 c 7.86874,-0.92045 14.83224,-2.99921 21.92246,-6.54436 10.20894,-5.10449 19.05371,-12.84896 25.39598,-22.23658 10.74999,-15.9118 14.04311,-35.86582 8.95717,-54.27397 -1.15922,-4.19575 -3.19745,-9.53443 -3.59013,-9.40354 -0.50236,0.16748 -87.636536,86.73535 -87.461633,86.89325 0.349206,0.31528 4.866265,2.06254 7.539825,2.9165 4.05696,1.29583 9.86299,2.47701 13.97769,2.84359 2.74295,0.24436 10.475148,0.13076 13.258638,-0.19496 z m 3.70739,-54.26642 c 24.93768,-24.70163 45.37552,-45.006923 45.41741,-45.122873 0.1415,-0.39169 -4.6277,-7.38502 -4.95606,-7.26731 -0.25421,0.091 -93.082584,92.147783 -93.072578,92.298813 0.02147,0.30866 6.664169,5.00344 7.080493,5.00344 0.104135,0 20.593057,-20.21042 45.530735,-44.91207 z m 12.01944,-36.1208 22.82583,-22.614233 -1.26703,-1.16577 c -1.8907,-1.73957 -3.98838,-3.45489 -4.22505,-3.45489 -0.28144,0 -92.872001,91.720223 -92.872001,91.999033 0,0.12066 0.772915,1.12111 1.7176,2.22311 0.944684,1.10202 1.970958,2.31417 2.280635,2.6937 l 0.563036,0.69003 24.075572,-23.87836 c 13.24158,-13.1331 34.347208,-34.05477 46.901408,-46.49262 z m -33.368318,8.42306 C 108.33216,89.718487 126.44569,71.800607 127.41062,70.853367 l 1.75447,-1.72224 -2.62096,-1.31446 -2.62097,-1.31446 -42.014138,41.591463 c -23.107811,22.87528 -42.757555,42.32547 -43.666125,43.22264 l -1.651941,1.6312 1.290111,2.61473 1.290132,2.61472 4.744656,-4.70538 c 2.60955,-2.58795 22.068674,-21.84828 43.242477,-42.80067 z m -4.79741,-19.883743 c 15.66862,-15.51373 28.488398,-28.27282 28.488398,-28.35355 0,-0.0807 -0.82623,-0.27825 -1.83606,-0.43896 -1.00983,-0.1606 -1.96445,-0.33048 -2.12141,-0.37731 -0.26581,-0.0792 -17.582248,17.01234 -58.203127,57.447423 l -16.792352,16.71555 0.288764,1.89244 c 0.158886,1.04083 0.341369,1.97752 0.405632,2.08151 0.0642,0.10392 4.878957,-4.52454 10.699313,-10.28561 5.820335,-5.76108 23.402222,-23.16776 39.070842,-38.681493 z m -21.623772,-3.13409 26.054332,-25.8724 -1.76632,0.33656 -1.7663,0.33654 -11.25797,11.20577 c -6.19191,6.16318 -17.511909,17.40211 -25.155589,24.97543 l -13.897601,13.769673 -0.346243,1.68278 -0.346242,1.68277 1.213824,-1.12236 c 0.667578,-0.61729 12.938231,-12.76491 27.268109,-26.994763 z m 87.12716,-24.48434 c -1.53233,-0.93427 -2.16216,-2.97359 -1.37591,-4.4551 0.1868,-0.35186 2.58529,-2.87742 5.33008,-5.61236 l 4.99059,-4.97259 -3.48269,-3.48853 c -1.91548,-1.91868 -3.4345,-3.53508 -3.37558,-3.59198 0.22487,-0.21727 25.62871,-6.80886 25.75487,-6.6827 0.073,0.073 -1.34115,5.54396 -3.1427,12.15754 -1.80155,6.61358 -3.37388,12.38711 -3.49405,12.83005 l -0.21851,0.80534 -3.53317,-3.52727 -3.53315,-3.52726 -4.91546,4.88099 c -2.70349,2.68455 -5.17904,5.05547 -5.50121,5.2687 -0.8121,0.53753 -2.55145,0.49541 -3.50311,-0.0848 z m -97.102083,-7.60067 c -0.531129,-0.15567 -4.2368,-3.77159 -13.075001,-12.75825 -13.43578,-13.66151 -13.228499,-13.40892 -12.633814,-15.39376 0.337783,-1.1274 1.624823,-2.31239 2.738527,-2.52131 1.742313,-0.32685 1.918011,-0.17649 13.185041,11.2787 5.887905,5.98629 10.792756,10.88415 10.899639,10.88415 0.2998,0 26.303563,-25.869009 26.227623,-26.091707 -0.0367,-0.108 -1.54092,-1.744375 -3.34247,-3.636491 -2.07558,-2.179958 -3.160432,-3.483961 -2.96135,-3.559668 0.86264,-0.32797 25.42716,-6.709838 25.5096,-6.627389 0.10715,0.107141 -6.7847,25.492505 -6.97176,25.679535 -0.0653,0.0653 -1.67962,-1.44193 -3.58724,-3.34955 l -3.46839,-3.46842 -14.668755,14.4951 c -8.06782,7.97229 -14.898325,14.6157 -15.178888,14.76314 -0.800957,0.42094 -1.864977,0.54272 -2.672762,0.30592 z m 55.413013,-7.31734 c -0.57852,-0.26261 -1.20391,-0.78608 -1.47981,-1.23858 -0.52381,-0.85919 -0.63651,-2.50425 -0.22923,-3.34609 0.13763,-0.2846 6.88075,-7.09342 14.98456,-15.1307 l 14.73418,-14.613245 -3.52506,-3.543908 C 127.5454,7.247056 127.19381,6.815595 127.64116,6.673607 128.87001,6.283585 153.13118,-0.05450303 153.18589,2.0496845e-4 153.25459,0.06891497 146.34984,25.557797 146.2173,25.724377 c -0.0468,0.0588 -1.65743,-1.46251 -3.57903,-3.3809 l -3.49384,-3.488 -14.72505,14.58082 c -9.57322,9.47941 -15.01769,14.70304 -15.56142,14.93022 -1.0819,0.45205 -1.46856,0.43537 -2.68272,-0.11573 z"
       id="path2641" />
    <path
       style="fill:#ff0000;stroke-width:1.07444"
       d="m -155.81301,-22.420938 c -5.72635,-4.63851 -5.88588,-12.11295 -0.35784,-16.76448 3.04766,-2.56443 3.1868,-3.05985 3.1868,-11.34645 v -8.66493 l -8.32695,-0.005 c -14.33837,-0.006 -19.5977,-5.26596 -19.60461,-19.60433 l -0.005,-8.32695 h -9.09499 c -8.11845,0 -9.22369,0.24048 -10.29371,2.23985 -1.55831,2.91171 -7.82974,5.50218 -11.24521,4.64497 -4.04843,-1.01609 -8.04613,-6.38724 -8.04613,-10.81048 0,-4.98788 4.85221,-10.042132 9.64072,-10.042132 4.35963,0 9.36338,2.621212 10.23279,5.360432 0.61559,1.93958 1.61294,2.16069 9.74614,2.16069 h 9.06039 v -11.818912 -11.81889 h -8.87434 c -7.66343,0 -9.05457,0.2886 -10.19523,2.1151 -2.03412,3.25715 -7.47535,5.64622 -11.06429,4.85796 -4.39756,-0.96587 -8.54618,-6.25649 -8.54618,-10.8987 0,-9.97478 14.72221,-13.8356 19.40354,-5.08847 1.27991,2.39155 1.98729,2.56743 10.32528,2.56743 h 8.95122 v -11.81888 -11.8189 h -8.61072 c -8.34589,0 -8.70599,0.10669 -11.70894,3.46753 -2.5608,2.86605 -3.88187,3.46753 -7.61593,3.46753 -3.73858,0 -5.05461,-0.60093 -7.63106,-3.48449 -4.26186,-4.76984 -4.25185,-9.99852 0.0273,-14.27768 4.82025,-4.82025 13.21359,-3.88456 16.26283,1.813 1.27992,2.39155 1.9873,2.56743 10.32528,2.56743 h 8.95123 l 0.005,-8.32695 c 0.006,-14.33837 5.26627,-19.59769 19.60464,-19.60461 l 8.32696,-0.005 v -8.66493 c 0,-8.2866 -0.13907,-8.78201 -3.18681,-11.34645 -4.0297,-3.39077 -5.14532,-8.61148 -2.80661,-13.13405 2.0495,-3.9633 4.66617,-5.5346 9.21675,-5.5346 4.49599,0 7.16402,1.56504 9.12167,5.35072 2.60748,5.04232 2.03394,8.42081 -2.13777,12.59252 -3.66309,3.66309 -3.76056,3.98055 -3.76056,12.24868 v 8.48811 h 11.8189 11.81889 v -8.48784 c 0,-8.26812 -0.0974,-8.58559 -3.76056,-12.24868 -4.17171,-4.1717 -4.74525,-7.5502 -2.13777,-12.59252 1.95765,-3.78567 4.62568,-5.35072 9.12167,-5.35072 4.55058,0 7.16725,1.5713 9.21676,5.53461 2.3387,4.52256 1.22309,9.74328 -2.80662,13.13405 -3.04766,2.56443 -3.1868,3.05985 -3.1868,11.34645 v 8.66493 h 11.81889 11.818903 v -8.48812 c 0,-8.26812 -0.0974,-8.58559 -3.76056,-12.24868 -4.171713,-4.1717 -4.745253,-7.5502 -2.13777,-12.59252 1.98566,-3.83981 4.64216,-5.3582 9.31965,-5.32682 9.74579,0.0654 13.80692,12.25418 6.21215,18.64476 -3.04765,2.56443 -3.1868,3.05985 -3.1868,11.34645 v 8.66493 l 8.32696,0.005 c 14.33836,0.006 19.59769,5.26624 19.60461,19.60461 l 0.005,8.32698 h 8.61072 c 8.34589,0 8.70597,-0.1067 11.70894,-3.46753 2.5608,-2.86605 3.88187,-3.46751 7.61593,-3.46751 3.73858,0 5.0546,0.60091 7.63106,3.48447 8.35728,9.35341 -1.72437,21.63924 -12.98051,15.81847 -1.7016,-0.87994 -3.40243,-2.57218 -3.77961,-3.76055 -0.61559,-1.93957 -1.61293,-2.16068 -9.74614,-2.16068 h -9.06039 v 11.8189 11.81889 h 8.61072 c 8.34589,0 8.70597,-0.1067 11.70894,-3.46753 2.5608,-2.86605 3.88187,-3.46753 7.61593,-3.46753 3.73858,0 5.0546,0.60093 7.63106,3.48449 4.26185,4.76983 4.25186,9.99852 -0.0273,14.27767 -4.82027,4.82027 -13.21361,3.88455 -16.26284,-1.81299 -1.27995,-2.39155 -1.98732,-2.56744 -10.32531,-2.56744 h -8.95122 v 11.81889 11.818912 h 8.61071 c 8.34589,0 8.70598,-0.10654 11.70894,-3.46753 2.56081,-2.86605 3.88188,-3.467532 7.61593,-3.467532 3.73858,0 5.05461,0.600932 7.63107,3.484482 4.26185,4.76984 4.25186,9.99853 -0.0274,14.27768 -4.82026,4.82025 -13.21361,3.88455 -16.26283,-1.81301 -1.27995,-2.39153 -1.98733,-2.56742 -10.32531,-2.56742 h -8.95123 l -0.005,8.32695 c -0.006,14.33837 -5.26624,19.5977 -19.60461,19.60461 l -8.32667,0.005 v 8.66493 c 0,8.2866 0.13907,8.78201 3.1868,11.34645 7.59477,6.39057 3.53364,18.57941 -6.21216,18.64475 -4.67748,0.0314 -7.33399,-1.48701 -9.31965,-5.32682 -2.607473,-5.04233 -2.033933,-8.42081 2.13777,-12.59251 3.66309,-3.6631 3.76057,-3.98056 3.76057,-12.24869 v -8.48811 h -11.818913 -11.81889 v 8.48811 c 0,8.26813 0.0974,8.58559 3.76057,12.24869 3.96778,3.96779 4.74551,7.56295 2.56035,11.83581 -5.29422,10.35231 -20.2887,6.50104 -20.2887,-5.21107 0,-1.84076 1.34369,-4.20789 3.76054,-6.62474 3.6631,-3.6631 3.76057,-3.98056 3.76057,-12.24869 v -8.48811 h -11.81889 -11.81891 v 8.48811 c 0,8.26813 0.0974,8.58559 3.76057,12.24869 2.40543,2.40544 3.76055,4.78644 3.76055,6.60747 0,3.67132 -2.67202,8.81621 -5.31271,10.22947 -3.14183,1.68145 -8.91874,1.28009 -11.48404,-0.79789 z m 9.23285,-6.1026 c 2.12774,-2.56378 0.32707,-6.1423 -2.8958,-5.75487 -3.64126,0.43773 -5.48317,3.32346 -3.58284,5.61325 1.76463,2.12624 4.7769,2.1921 6.47864,0.14158 z m 30.49243,-0.76733 c 0.81089,-1.29393 0.73035,-2.26198 -0.29043,-3.49195 -2.04193,-2.46038 -6.22952,-2.16519 -7.07501,0.49873 -1.46166,4.6053 4.76857,7.13717 7.36544,2.99322 z m 29.756043,0.10984 c 0.88094,-1.64605 0.85678,-2.61526 -0.0938,-3.76057 -1.93078,-2.32646 -6.12216,-1.92957 -6.94326,0.65748 -1.47072,4.63378 4.74979,7.37682 7.03701,3.10309 z m 16.93948,-40.97514 c 1.85596,-1.85597 1.85596,-98.712092 0,-100.568072 -1.85597,-1.85595 -98.712103,-1.85595 -100.568073,0 -1.85596,1.85598 -1.85596,98.712102 0,100.568072 1.85597,1.85596 98.712103,1.85596 100.568073,0 z m -54.135723,-3.47006 c -4.17727,-1.80765 -7.13671,-5.55145 -10.16616,-12.86056 l -2.37935,-5.74058 -6.03779,1.57981 c -3.47671,0.90968 -8.72717,1.38652 -12.37796,1.12414 -5.26508,-0.3784 -6.76814,-0.95322 -8.86417,-3.39002 -4.59907,-5.34675 -2.65613,-12.544832 6.0526,-22.423142 l 4.49934,-5.10363 -4.49934,-5.10361 c -8.72131,-9.89258 -10.65279,-17.07512 -6.03528,-22.4433 2.18843,-2.54419 3.49402,-3.00669 9.40139,-3.3303 3.77303,-0.2067 9.27756,0.2519 12.23228,1.01908 l 5.37223,1.39488 3.76055,-7.49085 c 4.16097,-8.28844 7.90457,-11.67963 12.89335,-11.67963 4.98878,0 8.73237,3.39119 12.89334,11.67963 l 3.76055,7.49085 5.372233,-1.39488 c 2.95473,-0.76718 8.45925,-1.22578 12.23228,-1.01908 5.90735,0.32361 7.21296,0.78611 9.40139,3.3303 4.6175,5.36818 2.68603,12.55072 -6.03526,22.4433 l -4.49936,5.10361 4.49936,5.10363 c 8.72129,9.89258 10.65276,17.075122 6.03526,22.443282 -2.19151,2.54778 -3.48574,3.00457 -9.40139,3.31812 -3.77303,0.19998 -9.2755,-0.28753 -12.2277,-1.08336 l -5.367653,-1.44696 -3.76514,7.55514 c -5.13928,10.3125 -10.3339,13.70044 -16.7496,10.92413 z m 7.31615,-7.86534 c 1.86377,-2.12564 4.50269,-7.17129 5.5817,-10.67227 0.61904,-2.00851 0.0214,-2.65561 -4.16166,-4.50597 l -4.8845,-2.16065 -4.88451,2.16065 c -5.29732,2.34324 -5.40074,2.91146 -1.8337,10.07464 2.26628,4.55105 4.60657,6.98388 6.71821,6.98388 0.99871,0 2.55771,-0.84611 3.46446,-1.88028 z m -28.15561,-15.41573 c 6.23815,-1.33785 6.94795,-2.38154 5.96609,-8.772472 -0.56446,-3.67409 -1.49779,-5.12034 -4.83407,-7.49066 l -4.13458,-2.93749 -4.43101,4.80708 c -11.74925,12.746442 -9.07062,17.933042 7.43357,14.393542 z m 63.414003,-0.48394 c 1.8495,-2.2285 -0.60986,-7.413062 -6.59815,-13.909602 l -4.431,-4.80708 -4.12442,2.93749 c -3.46877,2.47049 -4.271573,3.79149 -5.050053,8.30968 -0.50909,2.95472 -0.78226,5.565862 -0.60705,5.802532 0.17523,0.23665 2.623053,1.05015 5.439603,1.80775 7.20431,1.93785 13.69531,1.87839 15.37107,-0.1408 z m -47.629893,-4.568172 c 0.93803,-0.59612 0.71355,-1.19265 -0.80583,-2.14154 -1.82925,-1.14239 -2.10604,-1.03163 -2.10604,0.84277 0,2.28949 0.79503,2.64408 2.91187,1.29877 z m 20.72594,-1.29877 c 0,-1.8744 -0.27678,-1.98516 -2.10604,-0.84277 -1.51938,0.94889 -1.74386,1.54542 -0.80583,2.14154 2.11686,1.34531 2.91187,0.99072 2.91187,-1.29877 z m -5.3247,-6.71239 5.86191,-3.49818 0.31056,-6.97766 0.31054,-6.97769 -6.4886,-3.56467 -6.48861,-3.56468 -6.44668,3.54407 -6.44667,3.54408 v 7.01611 7.01611 l 6.17806,3.4552 c 3.39793,1.90035 6.4412,3.46649 6.76282,3.48032 0.32162,0.0141 3.22262,-1.54903 6.44667,-3.47301 z m -13.02353,-3.94032 c -2.14351,-2.14351 -3.14068,-4.21657 -3.14068,-6.52932 0,-4.62216 5.04785,-9.67 9.67001,-9.67 4.62216,0 9.67001,5.04784 9.67001,9.67 0,2.31275 -0.99718,4.38581 -3.1407,6.52932 -4.22257,4.22259 -8.83606,4.22259 -13.05864,0 z m 9.55941,-6.27649 c 0.44068,-3.08936 -2.59723,-4.36948 -4.90138,-2.06535 -1.42665,1.42665 -1.47299,1.98384 -0.2841,3.41636 1.93352,2.32974 4.76569,1.59186 5.18548,-1.35101 z m -22.3701,-0.25283 c 0,-0.59093 -0.4835,-1.07444 -1.07444,-1.07444 -0.59096,0 -1.07444,0.48351 -1.07444,1.07444 0,0.59094 0.48348,1.07445 1.07444,1.07445 0.59094,0 1.07444,-0.48351 1.07444,-1.07445 z m 40.828913,0 c 0,-0.59093 -0.48348,-1.07444 -1.07444,-1.07444 -0.59093,0 -1.074443,0.48351 -1.074443,1.07444 0,0.59094 0.483513,1.07445 1.074443,1.07445 0.59096,0 1.07444,-0.48351 1.07444,-1.07445 z m -40.374813,-13.29626 c 0.3412,-1.69896 0.62035,-4.41233 0.62035,-6.02972 0,-2.71483 -0.46767,-3.03462 -6.08864,-4.16348 -13.04158,-2.61912 -17.17909,-0.89505 -13.97528,5.82339 0.97556,2.0458 3.76771,5.88281 6.20477,8.52671 l 4.43101,4.80708 4.09373,-2.93746 c 2.54841,-1.82863 4.32789,-4.10354 4.71406,-6.02652 z m 56.635783,-3.40818 c 3.10479,-5.85259 1.75376,-8.05805 -4.84223,-7.90465 -5.54689,0.12901 -15.140233,2.3063 -15.010923,3.40686 1.18959,10.12445 1.54826,11.02896 5.501373,13.87387 l 4.00028,2.87885 3.95939,-3.83461 c 2.17767,-2.10905 5.05412,-5.89818 6.39211,-8.42032 z m -46.656903,-1.77636 c -2.11684,-1.3453 -2.91187,-0.9907 -2.91187,1.29879 0,1.8744 0.27679,1.98515 2.10604,0.84275 1.51938,-0.94887 1.74386,-1.5454 0.80583,-2.14154 z m 20.43748,-0.43136 c -0.26313,-0.26313 -1.2871,-0.16811 -2.27545,0.21116 -1.65613,0.63552 -1.64712,0.80034 0.11486,2.10207 1.60787,1.18791 1.96968,1.15433 2.27546,-0.21117 0.19998,-0.893 0.14834,-1.83893 -0.11487,-2.10206 z m -6.78253,-4.7978 c 5.44716,-2.40953 5.55111,-2.94422 1.9703,-10.13506 -3.91057,-7.85307 -7.33118,-8.90545 -11.35015,-3.49193 -2.74209,3.69355 -5.4195,10.45254 -4.50342,11.36863 0.29939,0.2994 2.35646,1.39061 4.57125,2.42491 2.21478,1.03431 4.08629,1.91971 4.15891,1.96755 0.0726,0.0478 2.39152,-0.91251 5.15311,-2.1341 z m 87.439483,56.802882 c 1.99361,-1.99359 1.52835,-4.95381 -0.99045,-6.30183 -1.87396,-1.00293 -2.65822,-0.84169 -4.40564,0.90573 -1.74743,1.74742 -1.90866,2.53167 -0.90573,4.40564 1.34802,2.5188 4.30822,2.98406 6.30182,0.99046 z m -178.271923,-1.69313 c 2.21137,-4.13199 -3.27073,-7.67287 -6.27497,-4.053 -0.71212,0.85808 -0.9805,2.55033 -0.59639,3.76057 0.87846,2.76777 5.44265,2.96201 6.87136,0.29243 z m 0.42731,-30.581642 c 0.74856,-2.08901 -1.23034,-5.11592 -3.34465,-5.11592 -4.17376,0 -6.10353,5.42844 -2.62234,7.37662 2.04099,1.14219 5.17277,-0.0443 5.96699,-2.2607 z m 178.016713,1.91954 c 1.52005,-1.83157 0.6171,-5.51074 -1.55727,-6.34512 -0.83505,-0.32044 -2.57325,0.27168 -3.86269,1.31579 -1.98963,1.61112 -2.15446,2.25335 -1.08915,4.24392 1.43893,2.68867 4.61181,3.0715 6.50911,0.78541 z m -178.016713,-32.00397 c 0.74856,-2.08901 -1.23034,-5.11592 -3.34465,-5.11592 -4.17376,0 -6.10353,5.42844 -2.62234,7.37662 2.04099,1.1422 5.17277,-0.0443 5.96699,-2.2607 z m 178.016713,1.91954 c 1.93182,-2.32771 0.35674,-5.96102 -2.58416,-5.96102 -3.54484,0 -5.35934,2.49539 -3.85648,5.30355 1.37909,2.57681 4.57681,2.90325 6.44064,0.65747 z m -119.145873,-60.31057 c 1.88455,-2.27075 0.005,-5.28216 -3.29809,-5.28216 -3.30238,0 -5.18265,3.01141 -3.29809,5.28216 0.77677,0.93596 2.26092,1.70173 3.29809,1.70173 1.03717,0 2.52131,-0.76577 3.29809,-1.70173 z m 30.08446,0 c 1.88456,-2.27075 0.005,-5.28216 -3.29808,-5.28216 -3.30238,0 -5.18265,3.01141 -3.29809,5.28216 0.77677,0.93596 2.26092,1.70173 3.29809,1.70173 1.03716,0 2.52131,-0.76577 3.29808,-1.70173 z m 29.952733,0.15875 c 0.95052,-1.14531 0.97468,-2.11452 0.0938,-3.76057 -2.28724,-4.27372 -8.50773,-1.53069 -7.03702,3.10311 0.82109,2.58703 5.01247,2.98392 6.94325,0.65746 z"
       id="path2673" />
    <path
       style="fill:#ff0000;stroke-width:1.33946"
       d="m 227.51717,-27.797756 c -7.35627,-2.74146 -11.11047,-11.98696 -7.57807,-18.66261 1.11936,-2.11543 9.91267,-11.67337 19.54068,-21.23986 13.5512,-13.46462 17.50547,-18.1849 17.50547,-20.89659 0,-8.55313 5.85509,-18.025974 13.66292,-22.104974 4.28343,-2.23777 16.59482,-2.52338 17.89773,-0.41522 0.5087,0.82309 -2.70707,5.12514 -7.27982,9.7389 l -8.19107,8.264534 5.65673,5.65672 5.65672,5.65673 8.26453,-8.19107 c 4.61376,-4.57275 8.91581,-7.78852 9.73891,-7.27982 2.13959,1.32235 1.808,13.63557 -0.4867,18.07303 -4.02691,7.78718 -17.28807,15.12562 -23.21988,12.84937 -1.50277,-0.57668 -7.86656,4.87886 -21.6258,18.53938 -19.33987,19.20109 -23.73255,22.17661 -29.54235,20.01148 z m 20.61658,-25.71209 c 14.33907,-14.37653 17.35514,-18.89781 12.60639,-18.89781 -1.68107,0 -31.88351,30.2272 -31.88351,31.90964 0,1.31134 1.4244,2.91627 2.58824,2.91627 0.44126,0 7.95125,-7.16764 16.68888,-15.9281 z m -33.89603,8.94306 c -0.18929,-5.97854 -7.67385,-8.46954 -12.45293,-4.14453 -2.37184,2.14649 -2.71323,2.05458 -6.52446,-1.75665 l -4.02164,-4.02166 2.80288,-3.56329 c 2.36832,-3.01083 2.55367,-4.03642 1.1955,-6.61496 -2.0291,-3.85231 -3.77433,-5.01453 -7.56878,-5.04036 -2.60577,-0.0177 -3.01377,-0.72642 -3.01377,-5.23503 0,-5.2801 1.4938,-6.8406 6.54827,-6.8406 1.29776,0 2.90779,-1.6148 3.67259,-3.68351 1.0864,-2.93863 0.86361,-4.40838 -1.10171,-7.26813 -2.42803,-3.53308 -2.41719,-3.63843 0.75386,-7.325004 l 3.21734,-3.74036 4.7141,2.5387 c 4.42385,2.382414 4.92241,2.402254 8.09707,0.32212 1.96425,-1.28703 3.5619,-3.76207 3.80963,-5.9018 0.36308,-3.13603 1.11307,-3.73984 5.03307,-4.05191 4.9665,-0.39539 6.72574,1.17615 6.75846,6.0374 0.0309,4.58129 6.18943,6.549254 11.21154,3.58262 3.73317,-2.20522 3.9195,-2.1738 7.33002,1.23672 3.45173,3.451714 3.46731,3.553934 1.142,7.490364 -2.2005,3.72516 -2.21148,4.27321 -0.16475,8.23114 l 2.19271,4.24024 -15.57687,15.61758 c -9.06034,9.084 -16.07096,17.27207 -16.75793,19.57244 l -1.18107,3.95486 -0.11514,-3.63639 z m 12.42908,-22.58025 c 7.05378,-5.5485 2.8588,-18.65519 -5.97085,-18.65519 -5.51173,0 -7.80447,1.26297 -9.99997,5.50858 -2.49868,4.83192 -1.34776,9.77581 3.08804,13.26502 4.3327,3.40809 8.44764,3.37027 12.88278,-0.11847 z m 47.7309,8.06699 c 0.001,-2.09972 3.76031,-3.9514 8.02132,-3.9514 7.03916,0 16.1038,-5.13587 20.67364,-11.71332 5.37,-7.72914 6.51724,-20.04789 2.2632,-24.30192 -1.55596,-1.555974 -3.47655,-2.829044 -4.26794,-2.829044 -0.79139,0 -4.90981,3.310694 -9.15204,7.357094 l -7.71314,7.35709 -2.88553,-3.07149 -2.88553,-3.0715 6.56954,-6.47074 c 3.61323,-3.558914 6.87576,-7.641804 7.25005,-9.073114 1.12451,-4.30016 -3.60041,-7.74251 -10.84091,-7.89813 l -6.36243,-0.13679 4.6881,-1.34268 c 2.57846,-0.73848 9.69364,-2.86794 15.81154,-4.73212 l 11.12342,-3.38943 3.94547,3.77999 3.94547,3.78 v 17.01398 c 0,15.064684 0.30682,17.376244 2.67802,20.176134 2.62806,3.10315 2.71555,3.11364 4.68811,0.5621 1.54345,-1.99647 2.01007,-6.52189 2.01007,-19.494244 v -16.89419 l 4.48519,-4.34722 4.48518,-4.34719 15.27183,4.62967 c 18.63765,5.65003 21.62835,6.97141 23.85754,10.54093 0.95924,1.53596 2.26609,9.47959 2.90412,17.652474 0.63804,8.17292 1.50217,19.21586 1.92031,24.53989 l 0.76026,9.68007 -51.62269,0.36587 c -28.39245,0.20123 -51.62244,0.0343 -51.62217,-0.37083 z m 35.01001,-75.437134 c -7.19184,-2.60261 -14.41179,-9.59002 -18.46107,-17.86644 -3.12101,-6.37911 -3.83844,-9.81736 -4.26485,-20.43873 -0.69489,-17.3094 1.05106,-23.22711 9.17478,-31.09709 7.29975,-7.07176 12.86206,-9.11905 24.75292,-9.11074 22.08366,0.0154 34.36215,15.52916 32.25892,40.75876 -1.48865,17.85747 -0.64922,16.81737 -13.57266,16.81737 -6.13863,0 -11.53366,-0.60276 -11.98896,-1.33946 -0.45531,-0.73669 -3.79215,-1.33945 -7.41519,-1.33945 -5.47076,0 -6.94354,0.54358 -8.68856,3.2068 -5.44693,8.3131 6.58329,17.14754 14.84315,10.9001 1.58854,-1.20151 5.69384,-1.98317 10.55253,-2.00918 l 7.95249,-0.0426 -3.93411,4.18728 c -7.792,8.29343 -20.42173,11.27726 -31.20939,7.37338 z m 4.60017,-12.32607 c -6.09866,-6.09865 3.61131,-13.3444 10.69885,-7.98366 3.85339,2.91455 30.38655,2.87227 33.31191,-0.0531 2.85779,-2.85781 2.64539,-5.54834 -0.57405,-7.27134 -2.38771,-1.27786 -2.67892,-2.80459 -2.67892,-14.04488 0,-10.49597 0.38343,-12.82574 2.28603,-13.89049 2.08844,-1.16875 1.94113,-1.95593 -1.70446,-9.10789 -11.2502,-22.07085 -44.29374,-27.14113 -64.01792,-9.82306 -7.16172,6.28807 -13.07129,18.7377 -8.89437,18.7377 0.80791,0 1.33946,5.58108 1.33946,14.06432 v 14.0643 h -6.53479 c -6.00046,0 -6.67111,-0.32913 -8.20205,-4.02513 -2.12387,-5.12747 -1.12909,-17.93445 1.63652,-21.06895 1.14758,-1.30065 2.52852,-4.47446 3.06877,-7.0529 4.51175,-21.53343 29.95101,-36.55028 54.40567,-32.11581 17.72886,3.21485 30.63317,13.24144 36.02481,27.99114 1.50249,4.11032 3.65884,9.28157 4.79187,11.49167 1.4326,2.79447 1.92972,6.87418 1.63213,13.39458 -0.37358,8.18586 -0.80537,9.54185 -3.40119,10.68099 -1.63531,0.71763 -3.32705,2.91546 -3.75944,4.88408 -1.56747,7.13675 -4.82736,8.50275 -21.46266,8.99359 -11.03291,0.32553 -15.62856,0.96786 -16.77068,2.34405 -2.10107,2.53163 -8.57564,2.41062 -11.19549,-0.20922 z"
       id="path2689" />
    <path
       style="fill:#ff0000;stroke-width:0.264583"
       d="m 405.92153,92.434874 c -2.78953,-0.67698 -5.11376,-2.63887 -6.41571,-5.41555 l -0.69722,-1.48696 v -9.00139 -9.00139 l 0.86962,-1.76645 c 1.43546,-2.91585 3.96191,-4.74857 7.24782,-5.25768 1.03789,-0.1608 12.61123,-0.23052 30.51173,-0.18379 l 28.83958,0.0753 1.45521,0.59027 c 2.13234,0.86493 4.04021,2.65667 5.08185,4.77255 l 0.87127,1.76981 v 9.00139 9.00139 l -0.69722,1.48696 c -1.32917,2.83472 -3.62906,4.744 -6.53981,5.42912 -2.31076,0.54389 -19.35756,0.50846 -20.51893,-0.0426 -1.05598,-0.50109 -3.16611,-2.62943 -4.83897,-4.88073 -1.58986,-2.13958 -2.87224,-2.91004 -4.84361,-2.91004 -1.97137,0 -3.25375,0.77046 -4.84361,2.91004 -1.67286,2.2513 -3.78299,4.37964 -4.83897,4.88073 -0.71216,0.33795 -2.32937,0.399 -10.06886,0.38011 -6.36857,-0.0155 -9.63914,-0.12411 -10.57417,-0.35103 z m -3.06432,-8.69142 c 0.17241,-0.20774 0.30947,-2.97894 0.36312,-7.34217 0.0811,-6.59205 0.12018,-7.07138 0.65831,-8.06683 0.31467,-0.58208 0.96952,-1.43925 1.45521,-1.90482 1.6525,-1.58401 2.13596,-1.66705 9.70573,-1.66705 7.37961,0 7.59263,-0.0396 7.40339,-1.3745 l -0.0865,-0.60988 h -7.54063 -7.54062 l -1.35139,0.71297 c -0.74326,0.39213 -1.89317,1.31556 -2.55534,2.05206 -1.99529,2.21924 -2.12363,2.83332 -2.24754,10.75369 -0.0964,6.16375 -0.061,6.9511 0.33005,7.34218 0.52296,0.52296 1.02766,0.56041 1.40616,0.10435 z m -9.53132,-12.89545 c -4.15897,-8.35861 -4.4128,-16.43784 -0.75227,-23.9448 2.3793,-4.87946 5.51996,-7.86886 11.26206,-10.71967 7.24047,-3.59471 15.17377,-5.36545 27.45226,-6.12744 10.24416,-0.63574 22.78688,0.78011 31.02066,3.50168 3.96109,1.30929 8.94896,3.76568 11.36863,5.59875 3.79581,2.8756 6.87211,7.71288 8.12354,12.77377 0.86158,3.48426 0.81052,8.79077 -0.11857,12.32264 -0.76561,2.91043 -1.91181,5.76883 -3.22812,8.05027 l -0.91592,1.5875 -0.008,-3.73061 -0.008,-3.73062 0.8256,-1.13971 c 1.5149,-2.09124 2.08483,-3.51657 2.08483,-5.21394 0,-4.27167 -3.37507,-10.20263 -7.88198,-13.8509 -5.30998,-4.29835 -12.7608,-6.98199 -23.20657,-8.35857 -5.28775,-0.69684 -20.84168,-0.70496 -26.09625,-0.0136 -15.57367,2.049 -24.74596,6.99234 -29.31171,15.79736 -2.04331,3.94051 -2.41473,6.88385 -1.17803,9.33535 0.38297,0.75915 1.04132,1.86307 1.46301,2.45316 l 0.76672,1.07289 -0.0739,3.68961 -0.0739,3.68961 z m 13.27171,-13.2064 c 0.30194,-0.42405 1.16686,-1.07889 1.92205,-1.45521 l 1.37306,-0.68423 h 26.35443 26.35443 l 1.37306,0.68423 c 0.75519,0.37632 1.62011,1.03116 1.92205,1.45521 l 0.54899,0.77098 h -30.19853 -30.19853 z"
       id="path2705" />
    <path
       style="fill:#ff0000;stroke-width:0.264583"
       d="m 573.74775,-110.96749 c -0.93308,-0.4518 -1.15466,-1.38491 -1.15466,-4.86236 v -3.29485 h -2.11667 -2.11667 v -2.11666 -2.11667 h 2.11667 2.11667 v -2.09326 -2.09326 l -2.86584,-0.0896 c -2.63364,-0.0823 -2.94147,-0.1473 -3.79923,-0.80222 -1.73244,-1.32278 -1.8016,-1.69661 -1.8016,-9.73837 0,-8.04176 0.0692,-8.41559 1.8016,-9.73837 0.85776,-0.65493 1.16559,-0.71992 3.79923,-0.80223 l 2.86584,-0.0896 v -2.09325 -2.09326 h -2.11667 -2.11667 v -2.11667 -2.11666 h 2.11667 2.11667 v -2.11667 -2.11667 h -2.11667 -2.11667 v -2.11666 -2.11667 h 2.11667 2.11667 v -2.09326 -2.09325 l -2.86584,-0.0895 c -2.63364,-0.0823 -2.94147,-0.1473 -3.79923,-0.80223 -1.73244,-1.32278 -1.8016,-1.6966 -1.8016,-9.73837 0,-8.04177 0.0692,-8.4156 1.8016,-9.73837 0.85776,-0.65493 1.16559,-0.71993 3.79923,-0.80223 l 2.86584,-0.0895 v -2.09326 -2.09325 h -2.11667 -2.11667 v -2.11667 -2.11667 h 2.11667 2.11667 v -4.23329 -4.23333 h -4.23334 -4.23333 v -2.11667 -2.11667 h 7.65262 7.65261 l 0.76552,0.64414 c 0.42103,0.35428 1.73986,2.11504 2.93072,3.9128 l 2.1652,3.26866 v 7.46857 7.46857 l 3.87818,-2.9147 c 2.133,-1.60309 4.02747,-2.91471 4.20993,-2.91471 0.23999,0 0.3565,-0.79252 0.42129,-2.86584 0.0823,-2.63363 0.1473,-2.94146 0.80222,-3.79922 1.49492,-1.9579 -2.83887,-1.8016 49.95504,-1.8016 52.79391,0 48.46012,-0.1563 49.95504,1.8016 0.65383,0.85633 0.72,1.16762 0.80146,3.77068 l 0.0888,2.8373 0.81515,0.16303 c 1.11989,0.22398 2.41819,1.26946 2.93877,2.3665 0.39462,0.83159 0.43411,3.68763 0.43411,31.39422 0,33.9266 0.12984,31.54729 -1.80199,33.0217 l -0.93377,0.71266 -7.09879,0.0783 -7.09878,0.0783 v 1.66664 c 0,2.47311 0.12855,2.5424 4.71718,2.5424 h 3.74948 v 2.11667 2.11666 h -4.38301 c -2.71004,0 -4.60361,-0.11293 -4.96094,-0.29586 -0.84571,-0.43296 -2.548,-2.10737 -2.98098,-2.93214 -0.23874,-0.45479 -0.37507,-1.53666 -0.37507,-2.97657 v -2.26209 h -4.20992 -4.20992 l -0.0896,2.86584 c -0.0823,2.63363 -0.1473,2.94146 -0.80222,3.79922 -1.4366,1.88151 -0.5352,1.8016 -20.32171,1.8016 -19.7865,0 -18.88511,0.0799 -20.3217,-1.8016 -0.65493,-0.85776 -0.71993,-1.16559 -0.80223,-3.79922 l -0.0895,-2.86584 h -2.06985 -2.06985 l -0.0895,2.86584 c -0.0823,2.63363 -0.1473,2.94146 -0.80223,3.79922 -1.13291,1.48377 -2.10407,1.8016 -5.50504,1.8016 -3.40096,0 -4.37212,-0.31783 -5.50504,-1.8016 -0.65492,-0.85776 -0.71992,-1.16559 -0.80222,-3.79922 l -0.0896,-2.86584 h -4.20993 -4.20992 v 3.29484 c 0,3.54984 -0.21889,4.41634 -1.23225,4.87806 -0.36224,0.16505 -2.08837,0.29376 -3.93958,0.29376 h -3.29484 v -2.11666 -2.11667 h 2.11667 2.11666 v -2.11667 -2.11666 h -2.45907 -2.45907 l -3.82478,-3.0341 -3.82478,-3.03409 -0.13229,7.73045 -0.1323,7.73044 -2.16665,3.20924 c -2.89842,4.29311 -2.95924,4.33585 -6.13726,4.31348 -1.3992,-0.01 -2.79831,-0.14104 -3.10913,-0.29155 z m 5.68954,-6.3844 1.62246,-2.46052 v -41.64561 -41.64562 l -1.62246,-2.46052 c -1.08605,-1.64704 -1.78585,-2.46052 -2.11666,-2.46052 -0.48069,0 -0.49421,1.27442 -0.49421,46.56666 0,45.29223 0.0135,46.56666 0.49421,46.56666 0.33081,0 1.03061,-0.81349 2.11666,-2.46053 z m 39.72246,-8.12281 v -2.11666 h -2.11667 -2.11666 v 2.11666 2.11667 h 2.11666 2.11667 z m 46.56666,0 v -2.11666 h -2.11666 -2.11667 v -2.11667 -2.11667 h 16.93333 16.93334 v -7.40832 -7.40833 h -16.47504 -16.47504 l -2.7734,2.79676 c -1.52537,1.53822 -3.0949,2.96697 -3.48786,3.175 -0.57124,0.30241 -2.22877,0.37824 -8.26823,0.37824 h -7.55376 v -2.11667 -2.11667 h 6.95004 6.95003 l 2.7734,-2.79676 c 1.52537,-1.53822 3.09491,-2.96697 3.48787,-3.175 0.59811,-0.31664 3.49568,-0.37824 17.79322,-0.37824 h 17.07877 v -2.11666 -2.11667 h -10.58334 -10.58333 v -2.11667 -2.11666 h 10.58333 10.58334 v -2.11667 -2.11667 h -10.58334 -10.58333 v -2.11666 -2.11667 h 10.58333 10.58334 v -2.11667 -2.11666 H 679.13272 662.9057 l -4.21204,-3.16833 -4.21204,-3.16832 -7.0776,-0.007 -7.0776,-0.007 v -2.11667 -2.11667 h 7.76035 7.76036 l 4.21204,3.16833 4.21204,3.16832 15.54427,0.007 15.54427,0.007 v -7.40833 -7.40833 H 644.9132 594.46665 l -4.58678,3.44229 -4.58678,3.44229 0.0132,22.55302 0.0132,22.55302 4.5865,3.63802 4.58651,3.63801 h 31.38364 31.38364 v 2.11667 2.11667 h -12.7 -12.7 v 2.11666 2.11667 h 16.93333 16.93333 z m -53.8427,-10.75237 c -6.14081,-0.97241 -10.76602,-3.25912 -14.84757,-7.34067 -3.44901,-3.44902 -5.58196,-7.22376 -6.76962,-11.98043 -0.82198,-3.29208 -0.82371,-8.52103 -0.004,-11.80326 1.2048,-4.82363 3.28549,-8.50884 6.77352,-11.99687 3.44901,-3.44901 7.22376,-5.58195 11.98043,-6.76962 3.29208,-0.82197 8.52102,-0.8237 11.80326,-0.004 4.82363,1.2048 8.50883,3.2855 11.99687,6.77352 3.44901,3.44902 5.58195,7.22376 6.76961,11.98043 0.82198,3.29208 0.82371,8.52103 0.004,11.80327 -1.20479,4.82362 -3.28549,8.50883 -6.77352,11.99686 -4.74651,4.74652 -10.32301,7.14988 -17.09653,7.36826 -1.67348,0.054 -3.39989,0.0415 -3.83645,-0.0276 z m 0.92604,-9.43888 v -5.37459 l -1.88977,-0.73812 -1.88978,-0.73812 -3.73262,3.74044 -3.73262,3.74045 0.65673,0.5015 c 2.32975,1.7791 5.57196,3.20639 8.73598,3.84578 0.94588,0.19114 1.74955,0.35872 1.78594,0.37239 0.0364,0.0137 0.0661,-2.3937 0.0661,-5.34973 z m 9.03521,4.15858 c 1.81246,-0.59261 4.02446,-1.7683 5.8061,-3.08598 l 0.62946,-0.46554 -3.72894,-3.72894 -3.72895,-3.72895 -1.88977,0.73812 -1.88978,0.73812 v 5.33847 5.33848 l 1.38907,-0.24105 c 0.76398,-0.13258 2.29974,-0.53881 3.41281,-0.90273 z m -19.52221,-10.38963 3.66112,-3.66814 -0.73747,-1.88811 -0.73746,-1.8881 h -5.34386 -5.34385 l 0.34863,1.78593 c 0.34916,1.78861 1.12226,4.23251 1.70764,5.39811 0.46541,0.9267 2.48738,3.92846 2.64619,3.92846 0.0759,0 1.78545,-1.65067 3.79906,-3.66815 z m 30.24247,2.0145 c 1.73738,-2.61624 2.49426,-4.47894 3.11775,-7.67292 l 0.34864,-1.78593 h -5.34386 -5.34385 l -0.73747,1.8881 -0.73747,1.88811 3.66112,3.66814 c 2.01362,2.01748 3.72319,3.66815 3.79906,3.66815 0.0759,0 0.6321,-0.74415 1.23608,-1.65365 z m -15.68512,-5.54729 c 2.27383,-0.67182 4.39632,-3.58218 4.39632,-6.02823 0,-3.1822 -3.07761,-6.33959 -6.18701,-6.34742 -3.43666,-0.009 -6.51299,2.98949 -6.51299,6.34742 0,1.66296 0.60538,3.00448 1.97541,4.37746 1.85597,1.85997 3.85517,2.38147 6.32827,1.65077 z m -11.63305,-10.03467 0.73812,-1.88977 -3.72894,-3.72895 -3.72894,-3.72894 -0.46554,0.62946 c -2.00265,2.70779 -3.43216,6.01175 -3.98871,9.21891 l -0.24105,1.38906 h 5.33847 5.33848 z m 30.53275,0.50071 c -0.55655,-3.20716 -1.98606,-6.51112 -3.98871,-9.21891 l -0.46554,-0.62946 -3.72895,3.72894 -3.72894,3.72895 0.73812,1.88977 0.73812,1.88977 h 5.33847 5.33847 z m -24.78994,-6.20093 1.81989,-0.71082 v -5.33848 -5.33847 l -1.38906,0.24105 c -3.20654,0.55644 -6.51179,1.98637 -9.21752,3.98773 l -0.62805,0.46456 3.69554,3.70263 c 2.03255,2.03644 3.74139,3.70263 3.79743,3.70263 0.056,0 0.92083,-0.31987 1.92177,-0.71083 z m 13.59231,-2.9918 3.69555,-3.70263 -0.62806,-0.46456 c -2.70572,-2.00136 -6.01097,-3.43129 -9.21751,-3.98773 l -1.38907,-0.24105 v 5.34129 5.34129 l 1.65365,0.67519 c 0.9095,0.37136 1.7743,0.68996 1.92177,0.70801 0.14748,0.018 1.93113,-1.63337 3.96367,-3.66981 z m 62.31091,35.98179 v -2.11666 h 2.11667 2.11666 v 2.11666 2.11667 h -2.11666 -2.11667 z m -46.56666,-12.7 v -2.11666 l 4.96093,-0.007 4.96094,-0.007 4.21204,-3.16833 4.21203,-3.16834 h 5.6437 5.64369 v 2.11667 2.11666 l -4.96094,0.007 -4.96094,0.007 -4.21203,3.16833 -4.21204,3.16834 h -5.64369 -5.64369 z m 4.23333,-10.58333 v -2.11667 h 4.23333 4.23334 v 2.11667 2.11667 h -4.23334 -4.23333 z m 9.90058,-5.28499 -4.21204,-3.16833 -4.96094,-0.007 -4.96093,-0.007 v -2.11666 -2.11667 h 5.64369 5.64369 l 4.21204,3.16833 4.21203,3.16832 4.96094,0.007 4.96094,0.007 v 2.11667 2.11666 h -5.64369 -5.6437 z m 32.43275,-17.99834 v -2.11667 h 2.11667 2.11666 v 2.11667 2.11666 h -2.11666 -2.11667 z m -114.29999,46.56666 v -6.35 h -2.11667 -2.11667 v 6.35 6.34999 h 2.11667 2.11667 z m 0,-42.33333 v -6.35 h -2.11667 -2.11667 v 6.35 6.35 h 2.11667 2.11667 z m 118.53332,-16.93333 v -2.11667 h -46.56666 -46.56667 v 2.11667 2.11666 h 46.56667 46.56666 z"
       id="path2721" />
    <path
       style="fill:#ff0000;stroke-width:0.391005"
       d="m 48.354488,-21.142316 c -1.76288,-0.55551 -3.11544,-1.66625 -3.89877,-3.20172 -0.69719,-1.3666 -0.76037,-2.38004 -0.77011,-12.3547 l -0.0103,-10.86598 -3.21518,-1.5212 c -4.70914,-2.22803 -8.275017,-6.09897 -10.034757,-10.89323 l -0.39468,-1.07526 h -12.56081 c -10.7901896,0 -12.7494696,-0.0897 -13.9010296,-0.63611 -3.58514001,-1.70127 -4.72668,-6.5709 -2.2346,-9.53257 2.10829,-2.50557 2.23268,-2.52669 15.6758496,-2.6619 l 12.21893,-0.12295 v -43.351344 -43.35134 l -12.21893,-0.12295 c -13.4431696,-0.13522 -13.5675596,-0.15633 -15.6758496,-2.66191 -2.49208,-2.96166 -1.35054001,-7.8313 2.2346,-9.53256 1.15121,-0.54628 3.10677,-0.63612 13.8479296,-0.63612 h 12.50743 l 1.41204,-2.97332 c 1.89772,-3.99607 5.010487,-7.04777 9.222267,-9.04128 l 3.11649,-1.47509 0.0103,-10.86599 c 0.0104,-10.02503 0.0702,-10.98278 0.78047,-12.37503 2.05239,-4.023 7.91379,-4.44976 10.65214,-0.77557 1.24648,1.67249 1.46213,3.65866 1.47186,13.55718 l 0.009,9.4819 h 6.04317 6.04317 l 0.11509,-10.85042 c 0.11305,-10.64511 0.13241,-10.87456 1.02576,-12.12707 2.55497,-3.58214 8.02016,-3.43656 10.525,0.28036 0.86077,1.27731 0.88109,1.55406 0.88109,12.0023 v 10.69483 h 6.23866 6.23868 l 0.11512,-10.92033 c 0.10966,-10.39568 0.15471,-10.97334 0.93806,-12.02343 2.60797,-3.49603 7.867452,-3.49603 10.475412,0 0.78335,1.05009 0.82842,1.62775 0.93806,12.02343 l 0.11512,10.92033 h 6.23868 6.23866 v -10.69483 c 0,-10.44824 0.0204,-10.72499 0.88109,-12.0023 2.50484,-3.71692 7.97003,-3.8625 10.525,-0.28036 0.89337,1.25251 0.91277,1.48196 1.02577,12.12707 l 0.11512,10.85042 h 6.04318 6.04316 l 0.009,-9.4819 c 0.004,-5.21504 0.16941,-10.17208 0.36505,-11.01565 0.48904,-2.10856 1.5123,-3.3885 3.55857,-4.45121 2.97077,-1.54283 6.65962,-0.3349 8.20039,2.68525 0.71027,1.39225 0.77067,2.35 0.78047,12.37503 l 0.0103,10.86599 3.11648,1.47509 c 4.1582,1.96815 7.30665,5.03424 9.17587,8.93582 l 1.38136,2.88328 13.02728,0.1955 13.0273,0.1955 1.40015,1.06855 c 4.39795,3.35635 2.82792,9.99061 -2.66587,11.26477 -1.99827,0.46345 -29.61268,0.46345 -31.61093,0 -3.26135,-0.7564 -4.9322,-2.82857 -5.27226,-6.5386 -0.32099,-3.50181 -1.38461,-5.22678 -4.03827,-6.54914 l -2.01698,-1.00509 H 99.999438 48.149228 l -2.03749,1.0153 c -1.45483,0.72499 -2.31536,1.48954 -3.0093,2.67365 l -0.97184,1.65833 0.006,52.55591 0.006,52.555904 0.8747,1.54429 c 0.60503,1.06818 1.52093,1.88188 2.97077,2.63929 l 2.09604,1.09499 h 51.91448 51.914452 l 2.09604,-1.09499 c 1.44984,-0.75741 2.36574,-1.57111 2.97077,-2.63929 l 0.8747,-1.54429 0.006,-43.120934 c 0.006,-35.90429 0.0974,-43.33848 0.54957,-44.42086 1.15869,-2.77317 4.23923,-4.46094 7.14663,-3.91551 1.86703,0.35026 4.30748,2.58117 4.81247,4.39929 0.25558,0.92013 0.39735,15.0081 0.39875,39.62344 l 0.003,38.195654 12.21893,0.12295 c 13.44318,0.13522 13.56755,0.15633 15.67585,2.66191 2.49208,2.96166 1.35054,7.83129 -2.23461,9.53256 -1.15171,0.54645 -3.11098,0.63611 -13.90117,0.63611 h -12.56051 l -0.39468,1.07526 c -1.75974,4.79426 -5.32562,8.66521 -10.03476,10.89324 l -3.21518,1.52119 -0.0103,10.86598 c -0.0103,10.02504 -0.0702,10.98278 -0.78048,12.37503 -2.05237,4.02301 -7.91378,4.44977 -10.65213,0.77558 -1.24649,-1.67249 -1.46212,-3.65866 -1.47186,-13.55718 l -0.009,-9.4819 h -6.04316 -6.04318 l -0.11512,10.85041 c -0.11305,10.64512 -0.13241,10.87456 -1.02577,12.12707 -2.55496,3.58214 -8.02015,3.43656 -10.52499,-0.28035 -0.86077,-1.27731 -0.88109,-1.55406 -0.88109,-12.00229 v -10.69484 h -6.23866 -6.23868 l -0.11512,10.92033 c -0.10966,10.39567 -0.15472,10.97334 -0.93806,12.02343 -2.60796,3.49603 -7.867442,3.49603 -10.475422,0 -0.78334,-1.05009 -0.82842,-1.62776 -0.93806,-12.02343 l -0.11514,-10.92033 h -6.23867 -6.23867 v 10.69484 c 0,10.44823 -0.0204,10.72498 -0.88108,12.00229 -2.50484,3.71691 -7.97003,3.86249 -10.525,0.28035 -0.89337,-1.25251 -0.91277,-1.48195 -1.02577,-12.12707 l -0.11512,-10.85041 h -6.04318 -6.04316 l -0.009,9.4819 c -0.0104,9.89852 -0.22538,11.88469 -1.47186,13.55718 -1.46526,1.96601 -4.60986,3.08453 -6.76373,2.40581 z m 7.73029,-63.14415 c -2.75553,-1.0063 -4.17744,-3.05209 -4.17744,-6.01034 0,-1.04181 3.26295,-9.874814 10.58482,-28.653714 5.82165,-14.93119 10.96827,-27.84244 11.43693,-28.69165 1.10731,-2.00652 2.91109,-3.04276 5.29645,-3.04276 2.21689,0 3.98913,0.82666 5.09164,2.37498 0.44002,0.61795 5.64449,13.5521 11.56551,28.74256 11.722792,30.075154 11.706572,30.021424 9.884352,32.725394 -1.9986,2.96573 -5.974492,3.76399 -8.843752,1.7756 -1.55765,-1.07946 -2.14315,-2.13582 -4.462,-8.05047 l -1.30299,-3.32355 h -11.85826 -11.85827 l -1.75303,4.49657 c -0.96418,2.47311 -2.09794,4.98308 -2.51947,5.57772 -1.47387,2.07914 -4.58506,2.99244 -7.08449,2.07966 z m 29.84848,-25.154894 c 0.0158,-0.54979 -6.39343,-16.911 -6.62459,-16.911 -0.2274,0 -6.6829,16.34344 -6.67969,16.911 7.8e-4,0.16129 2.99286,0.29326 6.64875,0.29326 3.65592,0 6.65089,-0.13197 6.65553,-0.29326 z m 30.366382,25.154264 c -2.84366,-1.03728 -4.17743,-2.95791 -4.17743,-6.0155 0,-3.53458 2.44485,-5.98194 6.25084,-6.25724 l 2.35129,-0.17007 v -20.629314 -20.62932 l -2.35129,-0.17006 c -1.53729,-0.11128 -2.72173,-0.44449 -3.42129,-0.96271 -3.96119,-2.93434 -3.80893,-8.45207 0.29983,-10.86574 1.28962,-0.75759 1.97724,-0.80315 12.11984,-0.80315 10.52355,0 10.7833,0.0191 12.19119,0.89451 0.87345,0.54313 1.77541,1.5904 2.29611,2.66604 2.19369,4.53155 -1.00227,9.11371 -6.37392,9.13854 l -1.85728,0.009 v 20.72331 20.723294 l 1.85728,0.009 c 5.37165,0.0248 8.56761,4.60699 6.37392,9.13854 -0.5207,1.07564 -1.42266,2.12293 -2.29611,2.66604 -1.39108,0.86501 -1.77387,0.89757 -11.60467,0.98722 -7.89672,0.072 -10.49926,-0.0288 -11.65831,-0.45157 z M 3.5708714,-86.640476 c -0.67115,-0.29211 -1.72686,-1.19528 -2.34604,-2.00704 -0.93891001,-1.23099 -1.12574001,-1.84936 -1.12574001,-3.72599 0,-2.523 0.71934,-3.83409 2.92856001,-5.33768 1.2373,-0.84211 1.63773,-0.87976 9.3542896,-0.87976 9.03447,0 9.93797,0.21442 11.70049,2.77677 0.76632,1.11407 0.89061,1.70942 0.7691,3.6843 -0.16624,2.70218 -0.94259,4.01307 -3.10486,5.24263 -1.30858,0.74413 -2.04004,0.80726 -9.18864,0.79318 -5.6553696,-0.0118 -8.0986296,-0.1597 -8.9871596,-0.54641 z m 174.6312986,-0.25846 c -2.12171,-1.2437 -2.88704,-2.5556 -3.05164,-5.23094 -0.12147,-1.97488 0.003,-2.57023 0.7691,-3.6843 1.76254,-2.56235 2.66603,-2.77677 11.70051,-2.77677 7.71655,0 8.11698,0.0377 9.35428,0.87976 2.20924,1.50359 2.92858,2.81468 2.92858,5.33768 0,1.87712 -0.18677,2.49491 -1.12681,3.72738 -1.8032,2.36411 -2.71976,2.56853 -11.47058,2.55838 -7.08513,-0.009 -7.84989,-0.0764 -9.10344,-0.81119 z M 3.0276514,-111.9829 c -2.22026001,-1.51109 -2.92856001,-2.81142 -2.92856001,-5.37632 0,-2.5649 0.7083,-3.86523 2.92856001,-5.37633 1.23646,-0.84152 1.64016,-0.87976 9.2890996,-0.87976 8.88375,0 9.92667,0.22515 11.54362,2.49199 1.24326,1.74293 1.24326,5.78526 0,7.5282 -1.61695,2.26684 -2.65987,2.49198 -11.54362,2.49198 -7.6489396,0 -8.0526396,-0.0383 -9.2890996,-0.87976 z m 175.2598286,0.22949 c -2.14736,-1.05839 -3.01785,-2.67537 -3.01785,-5.60581 0,-2.0029 0.18482,-2.80064 0.87206,-3.7641 1.61695,-2.26684 2.65989,-2.49199 11.54364,-2.49199 7.64895,0 8.05263,0.0383 9.28909,0.87976 2.22026,1.5111 2.92858,2.81143 2.92858,5.37633 0,2.5649 -0.70832,3.86523 -2.92858,5.37632 -1.23844,0.84288 -1.63041,0.87939 -9.34819,0.87087 -6.61819,-0.007 -8.2845,-0.12178 -9.33875,-0.64138 z M 3.0276514,-137.00725 c -2.20922001,-1.50359 -2.92856001,-2.81468 -2.92856001,-5.33768 0,-1.87713 0.18675,-2.49491 1.12681001,-3.72738 1.79918,-2.35885 2.72648,-2.56737 11.4173296,-2.56737 7.04642,0 7.79925,0.0669 9.10344,0.80848 2.16227,1.22956 2.93862,2.54046 3.10486,5.24263 0.12148,1.97488 -0.003,2.57024 -0.7691,3.6843 -1.76252,2.56236 -2.66602,2.77678 -11.70049,2.77678 -7.7165596,0 -8.1169896,-0.0377 -9.3542896,-0.87976 z m 175.1684286,0.15578 c -0.74934,-0.3982 -1.77374,-1.32196 -2.27645,-2.0528 -0.76632,-1.11406 -0.89059,-1.70942 -0.7691,-3.6843 0.16624,-2.70217 0.94261,-4.01307 3.10488,-5.24263 1.30418,-0.74161 2.05702,-0.80848 9.10344,-0.80848 8.69086,0 9.61816,0.20852 11.41734,2.56737 0.94004,1.23247 1.12681,1.85025 1.12681,3.72738 0,2.523 -0.71934,3.83409 -2.92858,5.33768 -1.2373,0.8421 -1.63773,0.87976 -9.35428,0.87976 -7.09508,0 -8.22499,-0.0867 -9.42406,-0.72398 z"
       id="path2657" />
  </g>
</svg>
