<?xml version="1.0" encoding="UTF-8" standalone="no"?>
<svg
   xmlns:dc="http://purl.org/dc/elements/1.1/"
   xmlns:cc="http://creativecommons.org/ns#"
   xmlns:rdf="http://www.w3.org/1999/02/22-rdf-syntax-ns#"
   xmlns:svg="http://www.w3.org/2000/svg"
   xmlns="http://www.w3.org/2000/svg"
   xmlns:sodipodi="http://sodipodi.sourceforge.net/DTD/sodipodi-0.dtd"
   xmlns:inkscape="http://www.inkscape.org/namespaces/inkscape"
   width="200mm"
   height="200mm"
   viewBox="0 0 200 200"
   version="1.1"
   id="svg2064"
   inkscape:version="1.0.1 (3bc2e813f5, 2020-09-07)"
   sodipodi:docname="icon-quantum.svg">
  <defs
     id="defs2058" />
  <sodipodi:namedview
     id="base"
     pagecolor="#ffffff"
     bordercolor="#666666"
     borderopacity="1.0"
     inkscape:pageopacity="0.0"
     inkscape:pageshadow="2"
     inkscape:zoom="0.34085227"
     inkscape:cx="1065.0226"
     inkscape:cy="364.30653"
     inkscape:document-units="mm"
     inkscape:current-layer="layer1"
     inkscape:document-rotation="0"
     showgrid="false"
     inkscape:window-width="1920"
     inkscape:window-height="1009"
     inkscape:window-x="-8"
     inkscape:window-y="-8"
     inkscape:window-maximized="1" />
  <metadata
     id="metadata2061">
    <rdf:RDF>
      <cc:Work
         rdf:about="">
        <dc:format>image/svg+xml</dc:format>
        <dc:type
           rdf:resource="http://purl.org/dc/dcmitype/StillImage" />
        <dc:title></dc:title>
      </cc:Work>
    </rdf:RDF>
  </metadata>
  <g
     inkscape:label="Warstwa 1"
     inkscape:groupmode="layer"
     id="layer1">
    <path
       style="fill:#ff0000;stroke-width:0.110339"
       d="m 405.08907,-19.869036 c -6.47826,-0.59064 -12.42901,-2.88107 -17.59908,-6.77384 -7.45403,-5.61244 -12.1451,-13.72513 -13.36465,-23.1127 -0.25573,-1.96847 -0.25568,-6.19729 9e-5,-8.16509 0.54147,-4.16579 1.67881,-7.88127 3.47888,-11.36492 5.40328,-10.45686 15.42972,-17.3114 27.02751,-18.47727 1.46334,-0.14711 5.17417,-0.14807 6.65213,-0.002 10.24782,1.01468 19.41042,6.559 25.15933,15.22399 1.07508,1.62042 2.83598,5.06119 3.44457,6.73068 0.94291,2.58659 1.51886,4.91977 1.90662,7.72374 0.26655,1.9274 0.2666,6.56803 1e-4,8.4961 -0.54934,3.9744 -1.47544,7.0695 -3.15296,10.53739 -1.74507,3.60756 -3.82629,6.52815 -6.68337,9.37881 -4.48002,4.46998 -10.3072,7.69428 -16.35843,9.05146 -2.62711,0.58921 -3.95853,0.73325 -7.09023,0.76707 -1.60819,0.0173 -3.14742,0.0112 -3.42051,-0.0137 z m 6.34063,-3.40684 c 3.66481,-0.42869 6.90801,-1.39686 10.21023,-3.04799 4.75474,-2.37738 8.87413,-5.98431 11.828,-10.35653 5.00673,-7.41081 6.54048,-16.70425 4.17174,-25.27772 -0.5399,-1.95414 -1.48919,-4.44059 -1.67208,-4.37963 -0.23397,0.078 -40.8161,40.39638 -40.73464,40.46992 0.16264,0.14684 2.26643,0.96061 3.51162,1.35834 1.8895,0.60352 4.59362,1.15365 6.51001,1.32438 1.27751,0.11381 4.87873,0.0609 6.17512,-0.0908 z m 1.72669,-25.2742 c 11.61455,-11.50461 21.13333,-20.96166 21.15284,-21.01566 0.0659,-0.18243 -2.15532,-3.43952 -2.30825,-3.3847 -0.1184,0.0424 -43.35256,42.91718 -43.3479,42.98752 0.01,0.14376 3.10379,2.33032 3.29769,2.33032 0.0485,0 9.59107,-9.41286 21.20562,-20.91748 z m 5.59797,-16.82301 10.63097,-10.53242 -0.59011,-0.54295 c -0.88058,-0.81019 -1.85756,-1.60909 -1.96779,-1.60909 -0.13108,0 -43.25448,42.71805 -43.25448,42.8479 0,0.0562 0.35998,0.52215 0.79996,1.0354 0.43998,0.51326 0.91796,1.07781 1.06219,1.25457 l 0.26223,0.32138 11.21303,-11.12118 c 6.16717,-6.11665 15.99697,-15.86077 21.844,-21.65361 z m -15.54106,3.92298 c 9.86156,-9.75844 18.29781,-18.10357 18.74722,-18.54474 l 0.81713,-0.80212 -1.22069,-0.6122 -1.2207,-0.6122 -19.56779,19.37093 c -10.7623,10.654 -19.91403,19.71279 -20.33719,20.13064 l -0.76938,0.75972 0.60086,1.21779 0.60087,1.21779 2.20979,-2.1915 c 1.21538,-1.20532 10.27833,-10.17568 20.13988,-19.93411 z m -2.23436,-9.26071 c 7.29755,-7.22541 13.26827,-13.16787 13.26827,-13.20547 0,-0.0376 -0.38481,-0.12959 -0.85513,-0.20444 -0.47032,-0.0748 -0.91493,-0.15392 -0.98803,-0.17573 -0.1238,-0.0369 -8.18881,7.92338 -27.1077,26.75573 l -7.82092,7.78515 0.13449,0.88139 c 0.074,0.48476 0.15899,0.92102 0.18892,0.96945 0.0299,0.0484 2.27234,-2.10727 4.98313,-4.79045 2.71078,-2.68318 10.89942,-10.79022 18.19697,-18.01563 z m -10.07112,-1.45968 12.13462,-12.04989 -0.82265,0.15675 -0.82264,0.15674 -5.24332,5.21901 c -2.88384,2.87046 -8.15605,8.10491 -11.71604,11.63213 l -6.47271,6.41313 -0.16126,0.78374 -0.16126,0.78374 0.56533,-0.52273 c 0.31092,-0.2875 6.02589,-5.94517 12.69993,-12.57262 z m 40.57886,-11.40341 c -0.71367,-0.43513 -1.00701,-1.38493 -0.64082,-2.07493 0.087,-0.16388 1.20408,-1.34014 2.48245,-2.61392 l 2.32433,-2.31595 -1.62204,-1.62476 c -0.89212,-0.89361 -1.59959,-1.64644 -1.57215,-1.67294 0.10473,-0.10119 11.93639,-3.17118 11.99515,-3.11242 0.034,0.034 -0.62463,2.58206 -1.46369,5.66229 -0.83906,3.08023 -1.57136,5.76921 -1.62733,5.97551 l -0.10177,0.37508 -1.64555,-1.6428 -1.64554,-1.6428 -2.28934,2.27329 c -1.25913,1.25031 -2.4121,2.35455 -2.56215,2.45386 -0.37823,0.25035 -1.18832,0.23073 -1.63155,-0.0395 z m -45.22461,-3.53996 c -0.24737,-0.0725 -1.97326,-1.75659 -6.08959,-5.94207 -6.25762,-6.36275 -6.16108,-6.24511 -5.88411,-7.169534 0.15732,-0.52508 0.75675,-1.07698 1.27545,-1.17428 0.81147,-0.15223 0.8933,-0.0822 6.14084,5.252974 2.74225,2.78807 5.02665,5.06922 5.07643,5.06922 0.13963,0 12.2507,-12.048314 12.21533,-12.152034 -0.0171,-0.0503 -0.71767,-0.81243 -1.55673,-1.69367 -0.96669,-1.0153 -1.47195,-1.62263 -1.37923,-1.65789 0.40177,-0.15275 11.84252,-3.12506 11.88092,-3.08666 0.0499,0.0499 -3.15993,11.872954 -3.24705,11.960064 -0.0304,0.0304 -0.78227,-0.67157 -1.67073,-1.56003 l -1.61538,-1.615394 -6.83187,6.750994 c -3.75753,3.71304 -6.93879,6.80716 -7.06946,6.87583 -0.37304,0.19605 -0.8686,0.25277 -1.24482,0.14248 z m 25.80822,-3.408 c -0.26944,-0.12231 -0.56071,-0.36611 -0.68921,-0.57686 -0.24396,-0.40016 -0.29645,-1.16634 -0.10676,-1.55842 0.0641,-0.13255 3.20466,-3.30371 6.97895,-7.04702 l 6.86234,-6.806014 -1.64177,-1.65055 c -1.45055,-1.45831 -1.6143,-1.65926 -1.40595,-1.72539 0.57233,-0.18165 11.8718,-3.13357 11.89728,-3.10809 0.032,0.032 -3.18384,11.90327 -3.24557,11.98085 -0.0218,0.0274 -0.77194,-0.68115 -1.66691,-1.57463 l -1.62723,-1.62451 -6.85809,6.790914 c -4.45866,4.41497 -6.99438,6.84784 -7.24762,6.95365 -0.50389,0.21054 -0.68397,0.20277 -1.24946,-0.0539 z"
       id="path2641" />
    <path
       style="fill:#ff0000;stroke-width:1.07444"
       d="m 63.863046,198.03136 c -5.726347,-4.63851 -5.885875,-12.11295 -0.35784,-16.76448 3.04766,-2.56443 3.1868,-3.05985 3.1868,-11.34645 v -8.66493 l -8.326952,-0.005 c -14.338367,-0.006 -19.597695,-5.26596 -19.604609,-19.60433 l -0.0047,-8.32695 h -9.094989 c -8.118447,0 -9.223686,0.24048 -10.293711,2.23985 -1.558303,2.91171 -7.829734,5.50218 -11.2452052,4.64497 -4.048428,-1.01609 -8.04613103,-6.38724 -8.04613103,-10.81048 0,-4.98788 4.85221103,-10.04213 9.64071803,-10.04213 4.3596272,0 9.3633832,2.62121 10.2327882,5.36043 0.615593,1.93958 1.612941,2.16069 9.746143,2.16069 h 9.060387 v -11.81891 -11.81889 h -8.874334 c -7.663434,0 -9.054573,0.2886 -10.195232,2.1151 -2.034121,3.25715 -7.475353,5.64622 -11.0642902,4.85796 -4.39756,-0.96587 -8.54618003,-6.25649 -8.54618003,-10.898701 0,-9.97478 14.72221223,-13.8356 19.40353423,-5.08847 1.279915,2.39155 1.987294,2.56743 10.32528,2.56743 h 8.951222 v -11.81888 -11.8189 h -8.610717 c -8.34589,0 -8.705991,0.10669 -11.708939,3.46753 -2.560805,2.86605 -3.881876,3.46753 -7.615931,3.46753 -3.7385802,0 -5.0546062,-0.60093 -7.6310632,-3.48449 -4.261854,-4.76984 -4.251844,-9.99852 0.02734,-14.277678 4.820249,-4.820249 13.2135962,-3.884563 16.2628372,1.812995 1.279916,2.391553 1.987294,2.567433 10.32528,2.567433 h 8.951222 l 0.0047,-8.326951 c 0.0063,-14.338367 5.266274,-19.597694 19.604641,-19.604608 l 8.326961,-0.0047 v -8.66493 c 0,-8.286601 -0.13907,-8.782014 -3.18681,-11.346449 -4.029695,-3.390769 -5.145321,-8.611487 -2.80661,-13.1340522 2.0495,-3.963305 4.66617,-5.53460397 9.21675,-5.53460397 4.49599,0 7.16402,1.56504497 9.12167,5.35071997 2.60748,5.0423182 2.03394,8.4208142 -2.13777,12.5925182 -3.66309,3.66309 -3.76056,3.980559 -3.76056,12.248681 v 8.488116 h 11.8189 11.81889 v -8.487841 c 0,-8.268122 -0.0974,-8.585591 -3.76056,-12.248681 -4.17171,-4.171704 -4.74525,-7.5502 -2.13777,-12.5925182 1.95765,-3.785675 4.62568,-5.35071997 9.12167,-5.35071997 4.550584,0 7.167254,1.57129897 9.216764,5.53460397 2.3387,4.5225652 1.22309,9.7432832 -2.80662,13.1340522 -3.04766,2.564435 -3.1868,3.059848 -3.1868,11.346449 v 8.66493 h 11.81889 11.8189 v -8.488116 c 0,-8.268122 -0.0974,-8.585591 -3.76056,-12.248681 -4.17171,-4.171704 -4.74525,-7.5502 -2.13777,-12.5925182 1.98566,-3.83981 4.64216,-5.35819997 9.31965,-5.32681897 9.74579,0.06537 13.80692,12.25418117 6.21215,18.64475517 -3.04765,2.564435 -3.1868,3.059848 -3.1868,11.346449 v 8.66493 l 8.32696,0.0047 c 14.33836,0.0063 19.59769,5.266241 19.60461,19.604608 l 0.005,8.326986 h 8.61072 c 8.34589,0 8.70597,-0.1067 11.70894,-3.46753 2.5608,-2.866049 3.88187,-3.467515 7.61593,-3.467515 3.73858,0 5.0546,0.600916 7.63106,3.48447 8.35728,9.353415 -1.72437,21.639245 -12.98051,15.818475 -1.7016,-0.87994 -3.40243,-2.57218 -3.77961,-3.76055 -0.61559,-1.93957 -1.61293,-2.16068 -9.74614,-2.16068 h -9.06039 v 11.8189 11.81889 h 8.61072 c 8.34589,0 8.70597,-0.1067 11.70894,-3.46753 2.5608,-2.86605 3.88187,-3.46753 7.61593,-3.46753 3.73858,0 5.0546,0.60093 7.63106,3.48449 4.26185,4.76983 4.25186,9.998521 -0.0273,14.277671 -4.82027,4.82027 -13.21361,3.88455 -16.26284,-1.81299 -1.27995,-2.39155 -1.98732,-2.56744 -10.32531,-2.56744 h -8.95122 v 11.81889 11.81891 h 8.61071 c 8.34589,0 8.70598,-0.10654 11.70894,-3.46753 2.56081,-2.86605 3.88188,-3.46753 7.61593,-3.46753 3.73858,0 5.05461,0.60093 7.63107,3.48448 4.26185,4.76984 4.25186,9.99853 -0.0274,14.27768 -4.82026,4.82025 -13.21361,3.88455 -16.26283,-1.81301 -1.27995,-2.39153 -1.98733,-2.56742 -10.32531,-2.56742 h -8.95123 l -0.005,8.32695 c -0.006,14.33837 -5.26624,19.5977 -19.60461,19.60461 l -8.32667,0.005 v 8.66493 c 0,8.2866 0.13907,8.78201 3.1868,11.34645 7.59477,6.39057 3.53364,18.57941 -6.21216,18.64475 -4.67748,0.0314 -7.33399,-1.48701 -9.31965,-5.32682 -2.60747,-5.04233 -2.03393,-8.42081 2.13777,-12.59251 3.66309,-3.6631 3.76057,-3.98056 3.76057,-12.24869 v -8.48811 h -11.81891 -11.81889 v 8.48811 c 0,8.26813 0.0974,8.58559 3.76057,12.24869 3.96778,3.96779 4.74551,7.56295 2.56035,11.83581 -5.29422,10.35231 -20.288704,6.50104 -20.288704,-5.21107 0,-1.84076 1.34369,-4.20789 3.76054,-6.62474 3.6631,-3.6631 3.76057,-3.98056 3.76057,-12.24869 v -8.48811 h -11.81889 -11.81891 v 8.48811 c 0,8.26813 0.0974,8.58559 3.76057,12.24869 2.40543,2.40544 3.76055,4.78644 3.76055,6.60747 0,3.67132 -2.67202,8.81621 -5.31271,10.22947 -3.14183,1.68145 -8.91874,1.28009 -11.48404,-0.79789 z m 9.23285,-6.1026 c 2.12774,-2.56378 0.32707,-6.1423 -2.8958,-5.75487 -3.64126,0.43773 -5.48317,3.32346 -3.58284,5.61325 1.76463,2.12624 4.7769,2.1921 6.47864,0.14158 z m 30.492434,-0.76733 c 0.81089,-1.29393 0.73035,-2.26198 -0.29043,-3.49195 -2.04193,-2.46038 -6.229524,-2.16519 -7.075014,0.49873 -1.46166,4.6053 4.768574,7.13717 7.365444,2.99322 z m 29.75604,0.10984 c 0.88094,-1.64605 0.85678,-2.61526 -0.0938,-3.76057 -1.93078,-2.32646 -6.12216,-1.92957 -6.94326,0.65748 -1.47072,4.63378 4.74979,7.37682 7.03701,3.10309 z m 16.93948,-40.97514 c 1.85596,-1.85597 1.85596,-98.712095 0,-100.568068 -1.85597,-1.855957 -98.712103,-1.855957 -100.568075,0 -1.855957,1.855973 -1.855957,98.712098 0,100.568068 1.855972,1.85596 98.712105,1.85596 100.568075,0 z m -54.135724,-3.47006 c -4.17727,-1.80765 -7.13671,-5.55145 -10.16616,-12.86056 l -2.37935,-5.74058 -6.03779,1.57981 c -3.47671,0.90968 -8.72717,1.38652 -12.37796,1.12414 -5.26508,-0.3784 -6.768134,-0.95322 -8.864168,-3.39002 -4.599075,-5.34675 -2.656126,-12.54483 6.052598,-22.42314 l 4.49934,-5.10363 -4.49934,-5.103611 c -8.721311,-9.89258 -10.652789,-17.07512 -6.035281,-22.4433 2.188432,-2.54419 3.494024,-3.00669 9.401391,-3.3303 3.77303,-0.2067 9.27756,0.2519 12.23228,1.01908 l 5.37223,1.39488 3.76055,-7.490848 c 4.16097,-8.28844 7.90457,-11.679632 12.89335,-11.679632 4.988784,0 8.732374,3.391192 12.893344,11.679632 l 3.76055,7.490848 5.37223,-1.39488 c 2.95473,-0.76718 8.45925,-1.22578 12.23228,-1.01908 5.90735,0.32361 7.21296,0.78611 9.40139,3.3303 4.6175,5.36818 2.68603,12.55072 -6.03526,22.4433 l -4.49936,5.103611 4.49936,5.10363 c 8.72129,9.89258 10.65276,17.07512 6.03526,22.44328 -2.19151,2.54778 -3.48574,3.00457 -9.40139,3.31812 -3.77303,0.19998 -9.2755,-0.28753 -12.2277,-1.08336 l -5.36765,-1.44696 -3.76514,7.55514 c -5.13928,10.3125 -10.3339,13.70044 -16.749604,10.92413 z m 7.316154,-7.86534 c 1.86377,-2.12564 4.50269,-7.17129 5.5817,-10.67227 0.61904,-2.00851 0.0214,-2.65561 -4.16166,-4.50597 l -4.884504,-2.16065 -4.88451,2.16065 c -5.29732,2.34324 -5.40074,2.91146 -1.8337,10.07464 2.26628,4.55105 4.60657,6.98388 6.71821,6.98388 0.998714,0 2.557714,-0.84611 3.464464,-1.88028 z M 75.308666,123.545 c 6.23815,-1.33785 6.94795,-2.38154 5.96609,-8.77247 -0.56446,-3.67409 -1.49779,-5.12034 -4.83407,-7.49066 l -4.13458,-2.93749 -4.43101,4.80708 C 56.12585,121.8979 58.804478,127.0845 75.308666,123.545 Z m 63.414004,-0.48394 c 1.8495,-2.2285 -0.60986,-7.41306 -6.59815,-13.9096 l -4.431,-4.80708 -4.12442,2.93749 c -3.46877,2.47049 -4.27157,3.79149 -5.05005,8.30968 -0.50909,2.95472 -0.78226,5.56586 -0.60705,5.80253 0.17523,0.23665 2.62305,1.05015 5.4396,1.80775 7.20431,1.93785 13.69531,1.87839 15.37107,-0.1408 z m -47.629894,-4.56817 c 0.93803,-0.59612 0.71355,-1.19265 -0.80583,-2.14154 -1.82925,-1.14239 -2.10604,-1.03163 -2.10604,0.84277 0,2.28949 0.79503,2.64408 2.91187,1.29877 z m 20.725944,-1.29877 c 0,-1.8744 -0.27678,-1.98516 -2.10604,-0.84277 -1.51938,0.94889 -1.74386,1.54542 -0.80583,2.14154 2.11686,1.34531 2.91187,0.99072 2.91187,-1.29877 z m -5.3247,-6.71239 5.86191,-3.49818 0.31056,-6.97766 0.31054,-6.977691 -6.4886,-3.56467 -6.488614,-3.56468 -6.44668,3.54407 -6.44667,3.54408 v 7.016111 7.01611 l 6.17806,3.4552 c 3.39793,1.90035 6.4412,3.46649 6.762824,3.48032 0.32162,0.0141 3.22262,-1.54903 6.44667,-3.47301 z m -13.023534,-3.94032 c -2.14351,-2.14351 -3.14068,-4.21657 -3.14068,-6.52932 0,-4.622161 5.04785,-9.670001 9.67001,-9.670001 4.622164,0 9.670014,5.04784 9.670014,9.670001 0,2.31275 -0.99718,4.38581 -3.1407,6.52932 -4.22257,4.22259 -8.836064,4.22259 -13.058644,0 z m 9.559414,-6.27649 c 0.44068,-3.089361 -2.59723,-4.369481 -4.901384,-2.065351 -1.42665,1.42665 -1.47299,1.983841 -0.2841,3.416361 1.93352,2.32974 4.765694,1.59186 5.185484,-1.35101 z m -22.370104,-0.25283 c 0,-0.590931 -0.4835,-1.074441 -1.07444,-1.074441 -0.59096,0 -1.07444,0.48351 -1.07444,1.074441 0,0.59094 0.48348,1.07445 1.07444,1.07445 0.59094,0 1.07444,-0.48351 1.07444,-1.07445 z m 40.828914,0 c 0,-0.590931 -0.48348,-1.074441 -1.07444,-1.074441 -0.59093,0 -1.07444,0.48351 -1.07444,1.074441 0,0.59094 0.48351,1.07445 1.07444,1.07445 0.59096,0 1.07444,-0.48351 1.07444,-1.07445 z M 81.113896,86.715829 c 0.3412,-1.69896 0.62035,-4.41233 0.62035,-6.02972 0,-2.71483 -0.46767,-3.03462 -6.08864,-4.16348 -13.04158,-2.61912 -17.179087,-0.89505 -13.97528,5.82339 0.97556,2.0458 3.76771,5.88281 6.20477,8.52671 l 4.43101,4.80708 4.09373,-2.93746 c 2.54841,-1.82863 4.32789,-4.10354 4.71406,-6.02652 z m 56.635784,-3.40818 c 3.10479,-5.85259 1.75376,-8.05805 -4.84223,-7.90465 -5.54689,0.12901 -15.14023,2.3063 -15.01092,3.40686 1.18959,10.12445 1.54826,11.02896 5.50137,13.87387 l 4.00028,2.87885 3.95939,-3.83461 c 2.17767,-2.10905 5.05412,-5.89818 6.39211,-8.42032 z m -46.656904,-1.77636 c -2.11684,-1.3453 -2.91187,-0.9907 -2.91187,1.29879 0,1.8744 0.27679,1.98515 2.10604,0.84275 1.51938,-0.94887 1.74386,-1.5454 0.80583,-2.14154 z m 20.437484,-0.43136 c -0.26313,-0.26313 -1.2871,-0.16811 -2.27545,0.21116 -1.65613,0.63552 -1.64712,0.80034 0.11486,2.10207 1.60787,1.18791 1.96968,1.15433 2.27546,-0.21117 0.19998,-0.893 0.14834,-1.83893 -0.11487,-2.10206 z m -6.78253,-4.7978 c 5.44716,-2.40953 5.55111,-2.94422 1.9703,-10.13506 -3.91057,-7.853071 -7.331184,-8.905448 -11.350154,-3.491936 -2.74209,3.693556 -5.4195,10.452546 -4.50342,11.368636 0.29939,0.2994 2.35646,1.39061 4.57125,2.42491 2.21478,1.03431 4.08629,1.91971 4.15891,1.96755 0.0726,0.0478 2.391524,-0.91251 5.153114,-2.1341 z m 87.43948,56.802881 c 1.99361,-1.99359 1.52835,-4.95381 -0.99045,-6.30183 -1.87396,-1.00293 -2.65822,-0.84169 -4.40564,0.90573 -1.74743,1.74742 -1.90866,2.53167 -0.90573,4.40564 1.34802,2.5188 4.30822,2.98406 6.30182,0.99046 z M 13.915286,131.41188 c 2.211375,-4.13199 -3.270729,-7.67287 -6.2749662,-4.053 -0.712124,0.85808 -0.980502,2.55033 -0.596391,3.76057 0.878456,2.76777 5.4426472,2.96201 6.8713572,0.29243 z m 0.427309,-30.58164 c 0.748565,-2.089011 -1.230338,-5.115921 -3.344648,-5.115921 -4.1737622,0 -6.1035272,5.428441 -2.6223412,7.376621 2.0409892,1.14219 5.1727762,-0.0443 5.9669892,-2.2607 z m 178.016715,1.91954 c 1.52005,-1.83157 0.6171,-5.510741 -1.55727,-6.345121 -0.83505,-0.32044 -2.57325,0.27168 -3.86269,1.31579 -1.98963,1.61112 -2.15446,2.25335 -1.08915,4.243921 1.43893,2.68867 4.61181,3.0715 6.50911,0.78541 z M 14.342595,70.745809 c 0.748565,-2.08901 -1.230338,-5.11592 -3.344648,-5.11592 -4.1737622,0 -6.1035272,5.42844 -2.6223412,7.37662 2.0409892,1.1422 5.1727762,-0.0443 5.9669892,-2.2607 z m 178.016715,1.91954 c 1.93182,-2.32771 0.35674,-5.96102 -2.58416,-5.96102 -3.54484,0 -5.35934,2.49539 -3.85648,5.30355 1.37909,2.57681 4.57681,2.90325 6.44064,0.65747 z M 73.213436,12.354782 c 1.88455,-2.270758 0.005,-5.2821602 -3.29809,-5.2821602 -3.30238,0 -5.18265,3.0114022 -3.29809,5.2821602 0.77677,0.935953 2.26092,1.701725 3.29809,1.701725 1.03717,0 2.52131,-0.765772 3.29809,-1.701725 z m 30.084464,0 c 1.88456,-2.270758 0.005,-5.2821602 -3.298084,-5.2821602 -3.30238,0 -5.18265,3.0114022 -3.29809,5.2821602 0.77677,0.935953 2.26092,1.701725 3.29809,1.701725 1.037164,0 2.521314,-0.765772 3.298084,-1.701725 z m 29.95273,0.158742 c 0.95052,-1.14531 0.97468,-2.114514 0.0938,-3.7605642 -2.28724,-4.273718 -8.50773,-1.530694 -7.03702,3.1031092 0.82109,2.587032 5.01247,2.983919 6.94325,0.657455 z"
       id="path2673" />
    <path
       style="fill:#ff0000;stroke-width:0.928269"
       d="m 344.39142,297.5773 c -5.09803,-1.89988 -7.69976,-8.30718 -5.25174,-12.93353 0.77574,-1.46603 6.86966,-8.08986 13.54205,-14.71961 9.39123,-9.33123 12.13161,-12.60247 12.13161,-14.48172 0,-5.92748 4.05769,-12.49233 9.46866,-15.31915 2.96849,-1.55082 11.50051,-1.74875 12.40345,-0.28776 0.35254,0.57042 -1.87605,3.55182 -5.04505,6.74924 l -5.67656,5.72747 3.92022,3.92021 3.92021,3.92022 5.72747,-5.67656 c 3.19742,-3.169 6.17882,-5.39759 6.74924,-5.04505 1.48278,0.91641 1.25298,9.4497 -0.33729,12.52494 -2.79072,5.39666 -11.98095,10.48233 -16.0918,8.90485 -1.04145,-0.39965 -5.45167,3.38114 -14.98708,12.84813 -13.40288,13.30671 -16.44709,15.3688 -20.47339,13.86832 z m 14.28767,-17.81895 c 9.93724,-9.9632 12.02743,-13.09653 8.73646,-13.09653 -1.16501,0 -22.09586,20.94801 -22.09586,22.11397 0,0.90878 0.98714,2.02103 1.7937,2.02103 0.3058,0 5.51036,-4.96731 11.5657,-11.03847 z m -23.49057,6.19771 c -0.13118,-4.14324 -5.31812,-5.86955 -8.63011,-2.87224 -1.64373,1.48756 -1.88032,1.42386 -4.52157,-1.21739 l -2.78707,-2.78708 1.94245,-2.46943 c 1.64129,-2.08656 1.76974,-2.79731 0.8285,-4.58429 -1.4062,-2.66972 -2.61568,-3.47516 -5.2453,-3.49306 -1.80585,-0.0123 -2.0886,-0.50342 -2.0886,-3.62797 0,-3.65921 1.03523,-4.74066 4.53807,-4.74066 0.89937,0 2.01515,-1.11909 2.54517,-2.55274 0.7529,-2.03653 0.5985,-3.05509 -0.7635,-5.03695 -1.68267,-2.44849 -1.67516,-2.5215 0.52244,-5.07636 l 2.22967,-2.59214 3.26696,1.75937 c 3.06581,1.65105 3.41132,1.6648 5.61142,0.22323 1.36126,-0.89193 2.46846,-2.60718 2.64014,-4.09005 0.25162,-2.17333 0.77138,-2.59178 3.48801,-2.80805 3.44188,-0.27401 4.66106,0.81509 4.68374,4.18403 0.0214,3.17492 4.28939,4.53875 7.7698,2.48282 2.58716,-1.52826 2.71629,-1.50648 5.07984,0.85707 2.39211,2.3921 2.40291,2.46294 0.79143,5.19096 -1.52499,2.5816 -1.5326,2.96141 -0.11418,5.70433 l 1.51959,2.93856 -10.79506,10.82327 c -6.27898,6.29538 -11.13747,11.96986 -11.61355,13.56406 l -0.8185,2.74079 -0.0798,-2.52008 z m 8.61358,-15.64853 c 4.8884,-3.84521 1.9812,-12.92839 -4.13791,-12.92839 -3.81973,0 -5.40864,0.87526 -6.93016,3.81755 -1.73163,3.34861 -0.93402,6.77481 2.14007,9.1929 3.00264,2.36187 5.85437,2.33566 8.928,-0.0821 z m 33.07839,5.59057 c 10e-4,-1.45514 2.60596,-2.73839 5.55892,-2.73839 4.87827,0 11.16023,-3.55925 14.32721,-8.11755 3.72151,-5.35643 4.51657,-13.89355 1.56844,-16.84167 -1.07831,-1.07832 -2.40931,-1.96058 -2.95776,-1.96058 -0.54845,0 -3.40259,2.29437 -6.34253,5.0986 l -5.34535,5.0986 -1.99972,-2.1286 -1.99973,-2.12861 4.55281,-4.48434 c 2.50404,-2.46639 4.76503,-5.29591 5.02442,-6.28783 0.77931,-2.98009 -2.49515,-5.3657 -7.51295,-5.47355 l -4.40928,-0.0948 3.24894,-0.9305 c 1.78692,-0.51178 6.71787,-1.98753 10.95769,-3.27944 l 7.70873,-2.34894 2.73429,2.6196 2.73428,2.61961 v 11.791 c 0,10.4401 0.21263,12.04205 1.85592,13.98243 1.82129,2.15054 1.88192,2.15781 3.24894,0.38954 1.06964,-1.38359 1.39302,-4.51979 1.39302,-13.50986 v -11.70799 l 3.10832,-3.0127 3.10831,-3.01268 10.58366,3.20845 c 12.91623,3.91557 14.98884,4.83131 16.53371,7.30505 0.66477,1.06445 1.57044,6.56953 2.01261,12.23349 0.44217,5.66398 1.04103,13.31694 1.33081,17.00659 l 0.52687,6.70847 -35.77547,0.25355 c -19.67649,0.13946 -35.7753,0.0238 -35.77511,-0.25699 z m 24.26258,-52.27931 c -4.98408,-1.80366 -9.98764,-6.64606 -12.79386,-12.38177 -2.16292,-4.42084 -2.66011,-6.80361 -2.95562,-14.16442 -0.48157,-11.99573 0.7284,-16.09681 6.35829,-21.55085 5.05886,-4.90086 8.91364,-6.31967 17.15423,-6.31391 15.30438,0.0107 23.8136,10.76199 22.35602,28.24657 -1.03166,12.37555 -0.44992,11.65474 -9.4061,11.65474 -4.25418,0 -7.99304,-0.41772 -8.30857,-0.92827 -0.31554,-0.51054 -2.62803,-0.92826 -5.13886,-0.92826 -3.79134,0 -4.812,0.37671 -6.02133,2.22237 -3.77483,5.76113 4.56234,11.88356 10.28657,7.55397 1.10089,-0.83267 3.94594,-1.37437 7.3131,-1.3924 l 5.51122,-0.0295 -2.72641,2.90186 c -5.4,5.7475 -14.15263,7.81535 -21.62868,5.10989 z m 3.188,-8.54219 c -4.22648,-4.22648 2.50271,-9.24792 7.4145,-5.53283 2.67047,2.01984 21.05844,1.99054 23.08577,-0.0368 1.9805,-1.98051 1.8333,-3.8451 -0.39783,-5.03917 -1.65473,-0.88558 -1.85654,-1.94363 -1.85654,-9.73336 0,-7.2739 0.26572,-8.88847 1.58426,-9.62636 1.44733,-0.80997 1.34524,-1.3555 -1.18122,-6.31194 -7.7966,-15.2955 -30.69638,-18.8093 -44.3656,-6.80756 -4.9632,4.35775 -9.05864,12.98557 -6.16396,12.98557 0.5599,0 0.92827,3.86779 0.92827,9.74683 v 9.74682 h -4.52873 c -4.15843,0 -4.6232,-0.22809 -5.68417,-2.78949 -1.47188,-3.55343 -0.78248,-12.4289 1.13414,-14.60117 0.79529,-0.90137 1.75231,-3.10088 2.12671,-4.88779 3.12673,-14.92306 20.7566,-25.33001 37.70413,-22.25684 12.28643,2.22795 21.22935,9.17656 24.96586,19.39837 1.04125,2.84853 2.53564,6.4323 3.32085,7.96394 0.99282,1.93662 1.33733,4.76393 1.1311,9.28269 -0.2589,5.67295 -0.55814,6.61268 -2.35709,7.40212 -1.1333,0.49733 -2.30571,2.02047 -2.60536,3.38476 -1.08629,4.9459 -3.34545,5.89256 -14.87402,6.23272 -7.64601,0.2256 -10.83088,0.67075 -11.62239,1.62447 -1.45608,1.75447 -5.94307,1.67061 -7.75868,-0.14499 z"
       id="path2689" />
    <path
       style="fill:#ff0000;stroke-width:0.264583"
       d="m 405.92153,92.434874 c -2.78953,-0.67698 -5.11376,-2.63887 -6.41571,-5.41555 l -0.69722,-1.48696 v -9.00139 -9.00139 l 0.86962,-1.76645 c 1.43546,-2.91585 3.96191,-4.74857 7.24782,-5.25768 1.03789,-0.1608 12.61123,-0.23052 30.51173,-0.18379 l 28.83958,0.0753 1.45521,0.59027 c 2.13234,0.86493 4.04021,2.65667 5.08185,4.77255 l 0.87127,1.76981 v 9.00139 9.00139 l -0.69722,1.48696 c -1.32917,2.83472 -3.62906,4.744 -6.53981,5.42912 -2.31076,0.54389 -19.35756,0.50846 -20.51893,-0.0426 -1.05598,-0.50109 -3.16611,-2.62943 -4.83897,-4.88073 -1.58986,-2.13958 -2.87224,-2.91004 -4.84361,-2.91004 -1.97137,0 -3.25375,0.77046 -4.84361,2.91004 -1.67286,2.2513 -3.78299,4.37964 -4.83897,4.88073 -0.71216,0.33795 -2.32937,0.399 -10.06886,0.38011 -6.36857,-0.0155 -9.63914,-0.12411 -10.57417,-0.35103 z m -3.06432,-8.69142 c 0.17241,-0.20774 0.30947,-2.97894 0.36312,-7.34217 0.0811,-6.59205 0.12018,-7.07138 0.65831,-8.06683 0.31467,-0.58208 0.96952,-1.43925 1.45521,-1.90482 1.6525,-1.58401 2.13596,-1.66705 9.70573,-1.66705 7.37961,0 7.59263,-0.0396 7.40339,-1.3745 l -0.0865,-0.60988 h -7.54063 -7.54062 l -1.35139,0.71297 c -0.74326,0.39213 -1.89317,1.31556 -2.55534,2.05206 -1.99529,2.21924 -2.12363,2.83332 -2.24754,10.75369 -0.0964,6.16375 -0.061,6.9511 0.33005,7.34218 0.52296,0.52296 1.02766,0.56041 1.40616,0.10435 z m -9.53132,-12.89545 c -4.15897,-8.35861 -4.4128,-16.43784 -0.75227,-23.9448 2.3793,-4.87946 5.51996,-7.86886 11.26206,-10.71967 7.24047,-3.59471 15.17377,-5.36545 27.45226,-6.12744 10.24416,-0.63574 22.78688,0.78011 31.02066,3.50168 3.96109,1.30929 8.94896,3.76568 11.36863,5.59875 3.79581,2.8756 6.87211,7.71288 8.12354,12.77377 0.86158,3.48426 0.81052,8.79077 -0.11857,12.32264 -0.76561,2.91043 -1.91181,5.76883 -3.22812,8.05027 l -0.91592,1.5875 -0.008,-3.73061 -0.008,-3.73062 0.8256,-1.13971 c 1.5149,-2.09124 2.08483,-3.51657 2.08483,-5.21394 0,-4.27167 -3.37507,-10.20263 -7.88198,-13.8509 -5.30998,-4.29835 -12.7608,-6.98199 -23.20657,-8.35857 -5.28775,-0.69684 -20.84168,-0.70496 -26.09625,-0.0136 -15.57367,2.049 -24.74596,6.99234 -29.31171,15.79736 -2.04331,3.94051 -2.41473,6.88385 -1.17803,9.33535 0.38297,0.75915 1.04132,1.86307 1.46301,2.45316 l 0.76672,1.07289 -0.0739,3.68961 -0.0739,3.68961 z m 13.27171,-13.2064 c 0.30194,-0.42405 1.16686,-1.07889 1.92205,-1.45521 l 1.37306,-0.68423 h 26.35443 26.35443 l 1.37306,0.68423 c 0.75519,0.37632 1.62011,1.03116 1.92205,1.45521 l 0.54899,0.77098 h -30.19853 -30.19853 z"
       id="path2705" />
    <path
       style="fill:#ff0000;stroke-width:0.264583"
       d="m 573.74775,-110.96749 c -0.93308,-0.4518 -1.15466,-1.38491 -1.15466,-4.86236 v -3.29485 h -2.11667 -2.11667 v -2.11666 -2.11667 h 2.11667 2.11667 v -2.09326 -2.09326 l -2.86584,-0.0896 c -2.63364,-0.0823 -2.94147,-0.1473 -3.79923,-0.80222 -1.73244,-1.32278 -1.8016,-1.69661 -1.8016,-9.73837 0,-8.04176 0.0692,-8.41559 1.8016,-9.73837 0.85776,-0.65493 1.16559,-0.71992 3.79923,-0.80223 l 2.86584,-0.0896 v -2.09325 -2.09326 h -2.11667 -2.11667 v -2.11667 -2.11666 h 2.11667 2.11667 v -2.11667 -2.11667 h -2.11667 -2.11667 v -2.11666 -2.11667 h 2.11667 2.11667 v -2.09326 -2.09325 l -2.86584,-0.0895 c -2.63364,-0.0823 -2.94147,-0.1473 -3.79923,-0.80223 -1.73244,-1.32278 -1.8016,-1.6966 -1.8016,-9.73837 0,-8.04177 0.0692,-8.4156 1.8016,-9.73837 0.85776,-0.65493 1.16559,-0.71993 3.79923,-0.80223 l 2.86584,-0.0895 v -2.09326 -2.09325 h -2.11667 -2.11667 v -2.11667 -2.11667 h 2.11667 2.11667 v -4.23329 -4.23333 h -4.23334 -4.23333 v -2.11667 -2.11667 h 7.65262 7.65261 l 0.76552,0.64414 c 0.42103,0.35428 1.73986,2.11504 2.93072,3.9128 l 2.1652,3.26866 v 7.46857 7.46857 l 3.87818,-2.9147 c 2.133,-1.60309 4.02747,-2.91471 4.20993,-2.91471 0.23999,0 0.3565,-0.79252 0.42129,-2.86584 0.0823,-2.63363 0.1473,-2.94146 0.80222,-3.79922 1.49492,-1.9579 -2.83887,-1.8016 49.95504,-1.8016 52.79391,0 48.46012,-0.1563 49.95504,1.8016 0.65383,0.85633 0.72,1.16762 0.80146,3.77068 l 0.0888,2.8373 0.81515,0.16303 c 1.11989,0.22398 2.41819,1.26946 2.93877,2.3665 0.39462,0.83159 0.43411,3.68763 0.43411,31.39422 0,33.9266 0.12984,31.54729 -1.80199,33.0217 l -0.93377,0.71266 -7.09879,0.0783 -7.09878,0.0783 v 1.66664 c 0,2.47311 0.12855,2.5424 4.71718,2.5424 h 3.74948 v 2.11667 2.11666 h -4.38301 c -2.71004,0 -4.60361,-0.11293 -4.96094,-0.29586 -0.84571,-0.43296 -2.548,-2.10737 -2.98098,-2.93214 -0.23874,-0.45479 -0.37507,-1.53666 -0.37507,-2.97657 v -2.26209 h -4.20992 -4.20992 l -0.0896,2.86584 c -0.0823,2.63363 -0.1473,2.94146 -0.80222,3.79922 -1.4366,1.88151 -0.5352,1.8016 -20.32171,1.8016 -19.7865,0 -18.88511,0.0799 -20.3217,-1.8016 -0.65493,-0.85776 -0.71993,-1.16559 -0.80223,-3.79922 l -0.0895,-2.86584 h -2.06985 -2.06985 l -0.0895,2.86584 c -0.0823,2.63363 -0.1473,2.94146 -0.80223,3.79922 -1.13291,1.48377 -2.10407,1.8016 -5.50504,1.8016 -3.40096,0 -4.37212,-0.31783 -5.50504,-1.8016 -0.65492,-0.85776 -0.71992,-1.16559 -0.80222,-3.79922 l -0.0896,-2.86584 h -4.20993 -4.20992 v 3.29484 c 0,3.54984 -0.21889,4.41634 -1.23225,4.87806 -0.36224,0.16505 -2.08837,0.29376 -3.93958,0.29376 h -3.29484 v -2.11666 -2.11667 h 2.11667 2.11666 v -2.11667 -2.11666 h -2.45907 -2.45907 l -3.82478,-3.0341 -3.82478,-3.03409 -0.13229,7.73045 -0.1323,7.73044 -2.16665,3.20924 c -2.89842,4.29311 -2.95924,4.33585 -6.13726,4.31348 -1.3992,-0.01 -2.79831,-0.14104 -3.10913,-0.29155 z m 5.68954,-6.3844 1.62246,-2.46052 v -41.64561 -41.64562 l -1.62246,-2.46052 c -1.08605,-1.64704 -1.78585,-2.46052 -2.11666,-2.46052 -0.48069,0 -0.49421,1.27442 -0.49421,46.56666 0,45.29223 0.0135,46.56666 0.49421,46.56666 0.33081,0 1.03061,-0.81349 2.11666,-2.46053 z m 39.72246,-8.12281 v -2.11666 h -2.11667 -2.11666 v 2.11666 2.11667 h 2.11666 2.11667 z m 46.56666,0 v -2.11666 h -2.11666 -2.11667 v -2.11667 -2.11667 h 16.93333 16.93334 v -7.40832 -7.40833 h -16.47504 -16.47504 l -2.7734,2.79676 c -1.52537,1.53822 -3.0949,2.96697 -3.48786,3.175 -0.57124,0.30241 -2.22877,0.37824 -8.26823,0.37824 h -7.55376 v -2.11667 -2.11667 h 6.95004 6.95003 l 2.7734,-2.79676 c 1.52537,-1.53822 3.09491,-2.96697 3.48787,-3.175 0.59811,-0.31664 3.49568,-0.37824 17.79322,-0.37824 h 17.07877 v -2.11666 -2.11667 h -10.58334 -10.58333 v -2.11667 -2.11666 h 10.58333 10.58334 v -2.11667 -2.11667 h -10.58334 -10.58333 v -2.11666 -2.11667 h 10.58333 10.58334 v -2.11667 -2.11666 H 679.13272 662.9057 l -4.21204,-3.16833 -4.21204,-3.16832 -7.0776,-0.007 -7.0776,-0.007 v -2.11667 -2.11667 h 7.76035 7.76036 l 4.21204,3.16833 4.21204,3.16832 15.54427,0.007 15.54427,0.007 v -7.40833 -7.40833 H 644.9132 594.46665 l -4.58678,3.44229 -4.58678,3.44229 0.0132,22.55302 0.0132,22.55302 4.5865,3.63802 4.58651,3.63801 h 31.38364 31.38364 v 2.11667 2.11667 h -12.7 -12.7 v 2.11666 2.11667 h 16.93333 16.93333 z m -53.8427,-10.75237 c -6.14081,-0.97241 -10.76602,-3.25912 -14.84757,-7.34067 -3.44901,-3.44902 -5.58196,-7.22376 -6.76962,-11.98043 -0.82198,-3.29208 -0.82371,-8.52103 -0.004,-11.80326 1.2048,-4.82363 3.28549,-8.50884 6.77352,-11.99687 3.44901,-3.44901 7.22376,-5.58195 11.98043,-6.76962 3.29208,-0.82197 8.52102,-0.8237 11.80326,-0.004 4.82363,1.2048 8.50883,3.2855 11.99687,6.77352 3.44901,3.44902 5.58195,7.22376 6.76961,11.98043 0.82198,3.29208 0.82371,8.52103 0.004,11.80327 -1.20479,4.82362 -3.28549,8.50883 -6.77352,11.99686 -4.74651,4.74652 -10.32301,7.14988 -17.09653,7.36826 -1.67348,0.054 -3.39989,0.0415 -3.83645,-0.0276 z m 0.92604,-9.43888 v -5.37459 l -1.88977,-0.73812 -1.88978,-0.73812 -3.73262,3.74044 -3.73262,3.74045 0.65673,0.5015 c 2.32975,1.7791 5.57196,3.20639 8.73598,3.84578 0.94588,0.19114 1.74955,0.35872 1.78594,0.37239 0.0364,0.0137 0.0661,-2.3937 0.0661,-5.34973 z m 9.03521,4.15858 c 1.81246,-0.59261 4.02446,-1.7683 5.8061,-3.08598 l 0.62946,-0.46554 -3.72894,-3.72894 -3.72895,-3.72895 -1.88977,0.73812 -1.88978,0.73812 v 5.33847 5.33848 l 1.38907,-0.24105 c 0.76398,-0.13258 2.29974,-0.53881 3.41281,-0.90273 z m -19.52221,-10.38963 3.66112,-3.66814 -0.73747,-1.88811 -0.73746,-1.8881 h -5.34386 -5.34385 l 0.34863,1.78593 c 0.34916,1.78861 1.12226,4.23251 1.70764,5.39811 0.46541,0.9267 2.48738,3.92846 2.64619,3.92846 0.0759,0 1.78545,-1.65067 3.79906,-3.66815 z m 30.24247,2.0145 c 1.73738,-2.61624 2.49426,-4.47894 3.11775,-7.67292 l 0.34864,-1.78593 h -5.34386 -5.34385 l -0.73747,1.8881 -0.73747,1.88811 3.66112,3.66814 c 2.01362,2.01748 3.72319,3.66815 3.79906,3.66815 0.0759,0 0.6321,-0.74415 1.23608,-1.65365 z m -15.68512,-5.54729 c 2.27383,-0.67182 4.39632,-3.58218 4.39632,-6.02823 0,-3.1822 -3.07761,-6.33959 -6.18701,-6.34742 -3.43666,-0.009 -6.51299,2.98949 -6.51299,6.34742 0,1.66296 0.60538,3.00448 1.97541,4.37746 1.85597,1.85997 3.85517,2.38147 6.32827,1.65077 z m -11.63305,-10.03467 0.73812,-1.88977 -3.72894,-3.72895 -3.72894,-3.72894 -0.46554,0.62946 c -2.00265,2.70779 -3.43216,6.01175 -3.98871,9.21891 l -0.24105,1.38906 h 5.33847 5.33848 z m 30.53275,0.50071 c -0.55655,-3.20716 -1.98606,-6.51112 -3.98871,-9.21891 l -0.46554,-0.62946 -3.72895,3.72894 -3.72894,3.72895 0.73812,1.88977 0.73812,1.88977 h 5.33847 5.33847 z m -24.78994,-6.20093 1.81989,-0.71082 v -5.33848 -5.33847 l -1.38906,0.24105 c -3.20654,0.55644 -6.51179,1.98637 -9.21752,3.98773 l -0.62805,0.46456 3.69554,3.70263 c 2.03255,2.03644 3.74139,3.70263 3.79743,3.70263 0.056,0 0.92083,-0.31987 1.92177,-0.71083 z m 13.59231,-2.9918 3.69555,-3.70263 -0.62806,-0.46456 c -2.70572,-2.00136 -6.01097,-3.43129 -9.21751,-3.98773 l -1.38907,-0.24105 v 5.34129 5.34129 l 1.65365,0.67519 c 0.9095,0.37136 1.7743,0.68996 1.92177,0.70801 0.14748,0.018 1.93113,-1.63337 3.96367,-3.66981 z m 62.31091,35.98179 v -2.11666 h 2.11667 2.11666 v 2.11666 2.11667 h -2.11666 -2.11667 z m -46.56666,-12.7 v -2.11666 l 4.96093,-0.007 4.96094,-0.007 4.21204,-3.16833 4.21203,-3.16834 h 5.6437 5.64369 v 2.11667 2.11666 l -4.96094,0.007 -4.96094,0.007 -4.21203,3.16833 -4.21204,3.16834 h -5.64369 -5.64369 z m 4.23333,-10.58333 v -2.11667 h 4.23333 4.23334 v 2.11667 2.11667 h -4.23334 -4.23333 z m 9.90058,-5.28499 -4.21204,-3.16833 -4.96094,-0.007 -4.96093,-0.007 v -2.11666 -2.11667 h 5.64369 5.64369 l 4.21204,3.16833 4.21203,3.16832 4.96094,0.007 4.96094,0.007 v 2.11667 2.11666 h -5.64369 -5.6437 z m 32.43275,-17.99834 v -2.11667 h 2.11667 2.11666 v 2.11667 2.11666 h -2.11666 -2.11667 z m -114.29999,46.56666 v -6.35 h -2.11667 -2.11667 v 6.35 6.34999 h 2.11667 2.11667 z m 0,-42.33333 v -6.35 h -2.11667 -2.11667 v 6.35 6.35 h 2.11667 2.11667 z m 118.53332,-16.93333 v -2.11667 h -46.56666 -46.56667 v 2.11667 2.11666 h 46.56667 46.56666 z"
       id="path2721" />
    <path
       style="fill:#ff0000;stroke-width:0.391005"
       d="m 48.354488,-21.142316 c -1.76288,-0.55551 -3.11544,-1.66625 -3.89877,-3.20172 -0.69719,-1.3666 -0.76037,-2.38004 -0.77011,-12.3547 l -0.0103,-10.86598 -3.21518,-1.5212 c -4.70914,-2.22803 -8.275017,-6.09897 -10.034757,-10.89323 l -0.39468,-1.07526 h -12.56081 c -10.7901896,0 -12.7494696,-0.0897 -13.9010296,-0.63611 -3.58514001,-1.70127 -4.72668,-6.5709 -2.2346,-9.53257 2.10829,-2.50557 2.23268,-2.52669 15.6758496,-2.6619 l 12.21893,-0.12295 v -43.351344 -43.35134 l -12.21893,-0.12295 c -13.4431696,-0.13522 -13.5675596,-0.15633 -15.6758496,-2.66191 -2.49208,-2.96166 -1.35054001,-7.8313 2.2346,-9.53256 1.15121,-0.54628 3.10677,-0.63612 13.8479296,-0.63612 h 12.50743 l 1.41204,-2.97332 c 1.89772,-3.99607 5.010487,-7.04777 9.222267,-9.04128 l 3.11649,-1.47509 0.0103,-10.86599 c 0.0104,-10.02503 0.0702,-10.98278 0.78047,-12.37503 2.05239,-4.023 7.91379,-4.44976 10.65214,-0.77557 1.24648,1.67249 1.46213,3.65866 1.47186,13.55718 l 0.009,9.4819 h 6.04317 6.04317 l 0.11509,-10.85042 c 0.11305,-10.64511 0.13241,-10.87456 1.02576,-12.12707 2.55497,-3.58214 8.02016,-3.43656 10.525,0.28036 0.86077,1.27731 0.88109,1.55406 0.88109,12.0023 v 10.69483 h 6.23866 6.23868 l 0.11512,-10.92033 c 0.10966,-10.39568 0.15471,-10.97334 0.93806,-12.02343 2.60797,-3.49603 7.867452,-3.49603 10.475412,0 0.78335,1.05009 0.82842,1.62775 0.93806,12.02343 l 0.11512,10.92033 h 6.23868 6.23866 v -10.69483 c 0,-10.44824 0.0204,-10.72499 0.88109,-12.0023 2.50484,-3.71692 7.97003,-3.8625 10.525,-0.28036 0.89337,1.25251 0.91277,1.48196 1.02577,12.12707 l 0.11512,10.85042 h 6.04318 6.04316 l 0.009,-9.4819 c 0.004,-5.21504 0.16941,-10.17208 0.36505,-11.01565 0.48904,-2.10856 1.5123,-3.3885 3.55857,-4.45121 2.97077,-1.54283 6.65962,-0.3349 8.20039,2.68525 0.71027,1.39225 0.77067,2.35 0.78047,12.37503 l 0.0103,10.86599 3.11648,1.47509 c 4.1582,1.96815 7.30665,5.03424 9.17587,8.93582 l 1.38136,2.88328 13.02728,0.1955 13.0273,0.1955 1.40015,1.06855 c 4.39795,3.35635 2.82792,9.99061 -2.66587,11.26477 -1.99827,0.46345 -29.61268,0.46345 -31.61093,0 -3.26135,-0.7564 -4.9322,-2.82857 -5.27226,-6.5386 -0.32099,-3.50181 -1.38461,-5.22678 -4.03827,-6.54914 l -2.01698,-1.00509 H 99.999438 48.149228 l -2.03749,1.0153 c -1.45483,0.72499 -2.31536,1.48954 -3.0093,2.67365 l -0.97184,1.65833 0.006,52.55591 0.006,52.555904 0.8747,1.54429 c 0.60503,1.06818 1.52093,1.88188 2.97077,2.63929 l 2.09604,1.09499 h 51.91448 51.914452 l 2.09604,-1.09499 c 1.44984,-0.75741 2.36574,-1.57111 2.97077,-2.63929 l 0.8747,-1.54429 0.006,-43.120934 c 0.006,-35.90429 0.0974,-43.33848 0.54957,-44.42086 1.15869,-2.77317 4.23923,-4.46094 7.14663,-3.91551 1.86703,0.35026 4.30748,2.58117 4.81247,4.39929 0.25558,0.92013 0.39735,15.0081 0.39875,39.62344 l 0.003,38.195654 12.21893,0.12295 c 13.44318,0.13522 13.56755,0.15633 15.67585,2.66191 2.49208,2.96166 1.35054,7.83129 -2.23461,9.53256 -1.15171,0.54645 -3.11098,0.63611 -13.90117,0.63611 h -12.56051 l -0.39468,1.07526 c -1.75974,4.79426 -5.32562,8.66521 -10.03476,10.89324 l -3.21518,1.52119 -0.0103,10.86598 c -0.0103,10.02504 -0.0702,10.98278 -0.78048,12.37503 -2.05237,4.02301 -7.91378,4.44977 -10.65213,0.77558 -1.24649,-1.67249 -1.46212,-3.65866 -1.47186,-13.55718 l -0.009,-9.4819 h -6.04316 -6.04318 l -0.11512,10.85041 c -0.11305,10.64512 -0.13241,10.87456 -1.02577,12.12707 -2.55496,3.58214 -8.02015,3.43656 -10.52499,-0.28035 -0.86077,-1.27731 -0.88109,-1.55406 -0.88109,-12.00229 v -10.69484 h -6.23866 -6.23868 l -0.11512,10.92033 c -0.10966,10.39567 -0.15472,10.97334 -0.93806,12.02343 -2.60796,3.49603 -7.867442,3.49603 -10.475422,0 -0.78334,-1.05009 -0.82842,-1.62776 -0.93806,-12.02343 l -0.11514,-10.92033 h -6.23867 -6.23867 v 10.69484 c 0,10.44823 -0.0204,10.72498 -0.88108,12.00229 -2.50484,3.71691 -7.97003,3.86249 -10.525,0.28035 -0.89337,-1.25251 -0.91277,-1.48195 -1.02577,-12.12707 l -0.11512,-10.85041 h -6.04318 -6.04316 l -0.009,9.4819 c -0.0104,9.89852 -0.22538,11.88469 -1.47186,13.55718 -1.46526,1.96601 -4.60986,3.08453 -6.76373,2.40581 z m 7.73029,-63.14415 c -2.75553,-1.0063 -4.17744,-3.05209 -4.17744,-6.01034 0,-1.04181 3.26295,-9.874814 10.58482,-28.653714 5.82165,-14.93119 10.96827,-27.84244 11.43693,-28.69165 1.10731,-2.00652 2.91109,-3.04276 5.29645,-3.04276 2.21689,0 3.98913,0.82666 5.09164,2.37498 0.44002,0.61795 5.64449,13.5521 11.56551,28.74256 11.722792,30.075154 11.706572,30.021424 9.884352,32.725394 -1.9986,2.96573 -5.974492,3.76399 -8.843752,1.7756 -1.55765,-1.07946 -2.14315,-2.13582 -4.462,-8.05047 l -1.30299,-3.32355 h -11.85826 -11.85827 l -1.75303,4.49657 c -0.96418,2.47311 -2.09794,4.98308 -2.51947,5.57772 -1.47387,2.07914 -4.58506,2.99244 -7.08449,2.07966 z m 29.84848,-25.154894 c 0.0158,-0.54979 -6.39343,-16.911 -6.62459,-16.911 -0.2274,0 -6.6829,16.34344 -6.67969,16.911 7.8e-4,0.16129 2.99286,0.29326 6.64875,0.29326 3.65592,0 6.65089,-0.13197 6.65553,-0.29326 z m 30.366382,25.154264 c -2.84366,-1.03728 -4.17743,-2.95791 -4.17743,-6.0155 0,-3.53458 2.44485,-5.98194 6.25084,-6.25724 l 2.35129,-0.17007 v -20.629314 -20.62932 l -2.35129,-0.17006 c -1.53729,-0.11128 -2.72173,-0.44449 -3.42129,-0.96271 -3.96119,-2.93434 -3.80893,-8.45207 0.29983,-10.86574 1.28962,-0.75759 1.97724,-0.80315 12.11984,-0.80315 10.52355,0 10.7833,0.0191 12.19119,0.89451 0.87345,0.54313 1.77541,1.5904 2.29611,2.66604 2.19369,4.53155 -1.00227,9.11371 -6.37392,9.13854 l -1.85728,0.009 v 20.72331 20.723294 l 1.85728,0.009 c 5.37165,0.0248 8.56761,4.60699 6.37392,9.13854 -0.5207,1.07564 -1.42266,2.12293 -2.29611,2.66604 -1.39108,0.86501 -1.77387,0.89757 -11.60467,0.98722 -7.89672,0.072 -10.49926,-0.0288 -11.65831,-0.45157 z M 3.5708714,-86.640476 c -0.67115,-0.29211 -1.72686,-1.19528 -2.34604,-2.00704 -0.93891001,-1.23099 -1.12574001,-1.84936 -1.12574001,-3.72599 0,-2.523 0.71934,-3.83409 2.92856001,-5.33768 1.2373,-0.84211 1.63773,-0.87976 9.3542896,-0.87976 9.03447,0 9.93797,0.21442 11.70049,2.77677 0.76632,1.11407 0.89061,1.70942 0.7691,3.6843 -0.16624,2.70218 -0.94259,4.01307 -3.10486,5.24263 -1.30858,0.74413 -2.04004,0.80726 -9.18864,0.79318 -5.6553696,-0.0118 -8.0986296,-0.1597 -8.9871596,-0.54641 z m 174.6312986,-0.25846 c -2.12171,-1.2437 -2.88704,-2.5556 -3.05164,-5.23094 -0.12147,-1.97488 0.003,-2.57023 0.7691,-3.6843 1.76254,-2.56235 2.66603,-2.77677 11.70051,-2.77677 7.71655,0 8.11698,0.0377 9.35428,0.87976 2.20924,1.50359 2.92858,2.81468 2.92858,5.33768 0,1.87712 -0.18677,2.49491 -1.12681,3.72738 -1.8032,2.36411 -2.71976,2.56853 -11.47058,2.55838 -7.08513,-0.009 -7.84989,-0.0764 -9.10344,-0.81119 z M 3.0276514,-111.9829 c -2.22026001,-1.51109 -2.92856001,-2.81142 -2.92856001,-5.37632 0,-2.5649 0.7083,-3.86523 2.92856001,-5.37633 1.23646,-0.84152 1.64016,-0.87976 9.2890996,-0.87976 8.88375,0 9.92667,0.22515 11.54362,2.49199 1.24326,1.74293 1.24326,5.78526 0,7.5282 -1.61695,2.26684 -2.65987,2.49198 -11.54362,2.49198 -7.6489396,0 -8.0526396,-0.0383 -9.2890996,-0.87976 z m 175.2598286,0.22949 c -2.14736,-1.05839 -3.01785,-2.67537 -3.01785,-5.60581 0,-2.0029 0.18482,-2.80064 0.87206,-3.7641 1.61695,-2.26684 2.65989,-2.49199 11.54364,-2.49199 7.64895,0 8.05263,0.0383 9.28909,0.87976 2.22026,1.5111 2.92858,2.81143 2.92858,5.37633 0,2.5649 -0.70832,3.86523 -2.92858,5.37632 -1.23844,0.84288 -1.63041,0.87939 -9.34819,0.87087 -6.61819,-0.007 -8.2845,-0.12178 -9.33875,-0.64138 z M 3.0276514,-137.00725 c -2.20922001,-1.50359 -2.92856001,-2.81468 -2.92856001,-5.33768 0,-1.87713 0.18675,-2.49491 1.12681001,-3.72738 1.79918,-2.35885 2.72648,-2.56737 11.4173296,-2.56737 7.04642,0 7.79925,0.0669 9.10344,0.80848 2.16227,1.22956 2.93862,2.54046 3.10486,5.24263 0.12148,1.97488 -0.003,2.57024 -0.7691,3.6843 -1.76252,2.56236 -2.66602,2.77678 -11.70049,2.77678 -7.7165596,0 -8.1169896,-0.0377 -9.3542896,-0.87976 z m 175.1684286,0.15578 c -0.74934,-0.3982 -1.77374,-1.32196 -2.27645,-2.0528 -0.76632,-1.11406 -0.89059,-1.70942 -0.7691,-3.6843 0.16624,-2.70217 0.94261,-4.01307 3.10488,-5.24263 1.30418,-0.74161 2.05702,-0.80848 9.10344,-0.80848 8.69086,0 9.61816,0.20852 11.41734,2.56737 0.94004,1.23247 1.12681,1.85025 1.12681,3.72738 0,2.523 -0.71934,3.83409 -2.92858,5.33768 -1.2373,0.8421 -1.63773,0.87976 -9.35428,0.87976 -7.09508,0 -8.22499,-0.0867 -9.42406,-0.72398 z"
       id="path2657" />
  </g>
</svg>
